<?xml version="1.0" encoding="UTF-8" standalone="no"?>
<!-- Created with Inkscape (http://www.inkscape.org/) -->

<svg
   xmlns:dc="http://purl.org/dc/elements/1.1/"
   xmlns:cc="http://creativecommons.org/ns#"
   xmlns:rdf="http://www.w3.org/1999/02/22-rdf-syntax-ns#"
   xmlns:svg="http://www.w3.org/2000/svg"
   xmlns="http://www.w3.org/2000/svg"
   version="1.1"
   width="991"
   height="341"
   id="svg2">
  <defs
     id="defs4" />
  <metadata
     id="metadata7">
    <rdf:RDF>
      <cc:Work
         rdf:about="">
        <dc:format>image/svg+xml</dc:format>
        <dc:type
           rdf:resource="http://purl.org/dc/dcmitype/StillImage" />
        <dc:title></dc:title>
      </cc:Work>
    </rdf:RDF>
  </metadata>
  <g
     transform="translate(-29.5,-581.86218)"
     id="layer1">
    <path
       d="m 120,604.09448 a 10,10 0 1 1 -20,0 10,10 0 1 1 20,0 z"
       transform="translate(-60,298.2677)"
       id="path2987"
       style="fill:#000000;fill-opacity:1;stroke:#000000;stroke-width:1;stroke-miterlimit:4;stroke-opacity:1;stroke-dasharray:1, 1;stroke-dashoffset:0" />
    <path
       d="m 120,604.09448 a 10,10 0 1 1 -20,0 10,10 0 1 1 20,0 z"
       transform="translate(-10,298.2677)"
       id="path2987-6"
       style="fill:#000000;fill-opacity:1;stroke:#000000;stroke-width:1;stroke-miterlimit:4;stroke-opacity:1;stroke-dasharray:1, 1;stroke-dashoffset:0" />
    <path
       d="m 120,604.09448 a 10,10 0 1 1 -20,0 10,10 0 1 1 20,0 z"
       transform="translate(40,298.2677)"
       id="path2987-2"
       style="fill:#000000;fill-opacity:1;stroke:#000000;stroke-width:1;stroke-miterlimit:4;stroke-opacity:1;stroke-dasharray:1, 1;stroke-dashoffset:0" />
    <path
       d="m 120,604.09448 a 10,10 0 1 1 -20,0 10,10 0 1 1 20,0 z"
       transform="translate(90,298.2677)"
       id="path2987-5"
       style="fill:#000000;fill-opacity:1;stroke:#000000;stroke-width:1;stroke-miterlimit:4;stroke-opacity:1;stroke-dasharray:1, 1;stroke-dashoffset:0" />
    <path
       d="m 120,604.09448 a 10,10 0 1 1 -20,0 10,10 0 1 1 20,0 z"
       transform="translate(140,298.2677)"
       id="path2987-1"
       style="fill:#000000;fill-opacity:1;stroke:#000000;stroke-width:1;stroke-miterlimit:4;stroke-opacity:1;stroke-dasharray:1, 1;stroke-dashoffset:0" />
    <path
       d="m 120,604.09448 a 10,10 0 1 1 -20,0 10,10 0 1 1 20,0 z"
       transform="translate(190,298.2677)"
       id="path2987-23"
       style="fill:#000000;fill-opacity:1;stroke:#000000;stroke-width:1;stroke-miterlimit:4;stroke-opacity:1;stroke-dasharray:1, 1;stroke-dashoffset:0" />
    <path
       d="m 120,604.09448 a 10,10 0 1 1 -20,0 10,10 0 1 1 20,0 z"
       transform="translate(240,298.2677)"
       id="path2987-66"
       style="fill:#000000;fill-opacity:1;stroke:#000000;stroke-width:1;stroke-miterlimit:4;stroke-opacity:1;stroke-dasharray:1, 1;stroke-dashoffset:0" />
    <path
       d="m 120,604.09448 a 10,10 0 1 1 -20,0 10,10 0 1 1 20,0 z"
       transform="translate(290,298.2677)"
       id="path2987-661"
       style="fill:#000000;fill-opacity:1;stroke:#000000;stroke-width:1;stroke-miterlimit:4;stroke-opacity:1;stroke-dasharray:1, 1;stroke-dashoffset:0" />
    <path
       d="m 120,604.09448 a 10,10 0 1 1 -20,0 10,10 0 1 1 20,0 z"
       transform="translate(340,298.2677)"
       id="path2987-3"
       style="fill:#000000;fill-opacity:1;stroke:#000000;stroke-width:1;stroke-miterlimit:4;stroke-opacity:1;stroke-dasharray:1, 1;stroke-dashoffset:0" />
    <path
       d="m 120,604.09448 a 10,10 0 1 1 -20,0 10,10 0 1 1 20,0 z"
       transform="translate(390,298.2677)"
       id="path2987-9"
       style="fill:#000000;fill-opacity:1;stroke:#000000;stroke-width:1;stroke-miterlimit:4;stroke-opacity:1;stroke-dasharray:1, 1;stroke-dashoffset:0" />
    <path
       d="m 120,604.09448 a 10,10 0 1 1 -20,0 10,10 0 1 1 20,0 z"
       transform="translate(440,298.2677)"
       id="path2987-31"
       style="fill:#000000;fill-opacity:1;stroke:#000000;stroke-width:1;stroke-miterlimit:4;stroke-opacity:1;stroke-dasharray:1, 1;stroke-dashoffset:0" />
    <path
       d="m 120,604.09448 a 10,10 0 1 1 -20,0 10,10 0 1 1 20,0 z"
       transform="translate(490,298.2677)"
       id="path2987-7"
       style="fill:#000000;fill-opacity:1;stroke:#000000;stroke-width:1;stroke-miterlimit:4;stroke-opacity:1;stroke-dasharray:1, 1;stroke-dashoffset:0" />
    <path
       d="m 120,604.09448 a 10,10 0 1 1 -20,0 10,10 0 1 1 20,0 z"
       transform="translate(540,298.2677)"
       id="path2987-65"
       style="fill:#000000;fill-opacity:1;stroke:#000000;stroke-width:1;stroke-miterlimit:4;stroke-opacity:1;stroke-dasharray:1, 1;stroke-dashoffset:0" />
    <path
       d="m 120,604.09448 a 10,10 0 1 1 -20,0 10,10 0 1 1 20,0 z"
       transform="translate(590,298.2677)"
       id="path2987-91"
       style="fill:#000000;fill-opacity:1;stroke:#000000;stroke-width:1;stroke-miterlimit:4;stroke-opacity:1;stroke-dasharray:1, 1;stroke-dashoffset:0" />
    <path
       d="m 120,604.09448 a 10,10 0 1 1 -20,0 10,10 0 1 1 20,0 z"
       transform="translate(640,298.2677)"
       id="path2987-34"
       style="fill:#000000;fill-opacity:1;stroke:#000000;stroke-width:1;stroke-miterlimit:4;stroke-opacity:1;stroke-dasharray:1, 1;stroke-dashoffset:0" />
    <path
       d="m 120,604.09448 a 10,10 0 1 1 -20,0 10,10 0 1 1 20,0 z"
       transform="translate(690,298.2677)"
       id="path2987-95"
       style="fill:#000000;fill-opacity:1;stroke:#000000;stroke-width:1;stroke-miterlimit:4;stroke-opacity:1;stroke-dasharray:1, 1;stroke-dashoffset:0" />
    <path
       d="m 120,604.09448 a 10,10 0 1 1 -20,0 10,10 0 1 1 20,0 z"
       transform="translate(740,298.2677)"
       id="path2987-20"
       style="fill:#000000;fill-opacity:1;stroke:#000000;stroke-width:1;stroke-miterlimit:4;stroke-opacity:1;stroke-dasharray:1, 1;stroke-dashoffset:0" />
    <path
       d="m 120,604.09448 a 10,10 0 1 1 -20,0 10,10 0 1 1 20,0 z"
       transform="translate(790,298.2677)"
       id="path2987-0"
       style="fill:#000000;fill-opacity:1;stroke:#000000;stroke-width:1;stroke-miterlimit:4;stroke-opacity:1;stroke-dasharray:1, 1;stroke-dashoffset:0" />
    <path
       d="m 120,604.09448 a 10,10 0 1 1 -20,0 10,10 0 1 1 20,0 z"
       transform="translate(840,298.2677)"
       id="path2987-97"
       style="fill:#000000;fill-opacity:1;stroke:#000000;stroke-width:1;stroke-miterlimit:4;stroke-opacity:1;stroke-dasharray:1, 1;stroke-dashoffset:0" />
    <path
       d="m 120,604.09448 a 10,10 0 1 1 -20,0 10,10 0 1 1 20,0 z"
       transform="translate(890,298.2677)"
       id="path2987-28"
       style="fill:#000000;fill-opacity:1;stroke:#000000;stroke-width:1;stroke-miterlimit:4;stroke-opacity:1;stroke-dasharray:1, 1;stroke-dashoffset:0" />
    <path
       d="m 120,604.09448 a 10,10 0 1 1 -20,0 10,10 0 1 1 20,0 z"
       transform="translate(590,248.2677)"
       id="path2987-91-7"
       style="fill:#000000;fill-opacity:1;stroke:#000000;stroke-width:1;stroke-miterlimit:4;stroke-opacity:1;stroke-dasharray:1, 1;stroke-dashoffset:0" />
    <path
       d="m 120,604.09448 a 10,10 0 1 1 -20,0 10,10 0 1 1 20,0 z"
       transform="translate(640,248.2677)"
       id="path2987-34-1"
       style="fill:#000000;fill-opacity:1;stroke:#000000;stroke-width:1;stroke-miterlimit:4;stroke-opacity:1;stroke-dasharray:1, 1;stroke-dashoffset:0" />
    <path
       d="m 120,604.09448 a 10,10 0 1 1 -20,0 10,10 0 1 1 20,0 z"
       transform="translate(690,248.2677)"
       id="path2987-95-2"
       style="fill:#000000;fill-opacity:1;stroke:#000000;stroke-width:1;stroke-miterlimit:4;stroke-opacity:1;stroke-dasharray:1, 1;stroke-dashoffset:0" />
    <path
       d="m 120,604.09448 a 10,10 0 1 1 -20,0 10,10 0 1 1 20,0 z"
       transform="translate(740,248.2677)"
       id="path2987-20-8"
       style="fill:#000000;fill-opacity:1;stroke:#000000;stroke-width:1;stroke-miterlimit:4;stroke-opacity:1;stroke-dasharray:1, 1;stroke-dashoffset:0" />
    <path
       d="m 120,604.09448 a 10,10 0 1 1 -20,0 10,10 0 1 1 20,0 z"
       transform="translate(790,248.2677)"
       id="path2987-0-3"
       style="fill:#000000;fill-opacity:1;stroke:#000000;stroke-width:1;stroke-miterlimit:4;stroke-opacity:1;stroke-dasharray:1, 1;stroke-dashoffset:0" />
    <path
       d="m 120,604.09448 a 10,10 0 1 1 -20,0 10,10 0 1 1 20,0 z"
       transform="translate(840,248.2677)"
       id="path2987-97-9"
       style="fill:#000000;fill-opacity:1;stroke:#000000;stroke-width:1;stroke-miterlimit:4;stroke-opacity:1;stroke-dasharray:1, 1;stroke-dashoffset:0" />
    <path
       d="m 120,604.09448 a 10,10 0 1 1 -20,0 10,10 0 1 1 20,0 z"
       transform="translate(890,248.2677)"
       id="path2987-28-9"
       style="fill:#000000;fill-opacity:1;stroke:#000000;stroke-width:1;stroke-miterlimit:4;stroke-opacity:1;stroke-dasharray:1, 1;stroke-dashoffset:0" />
    <path
       d="m 120,604.09448 a 10,10 0 1 1 -20,0 10,10 0 1 1 20,0 z"
       transform="translate(590,198.2677)"
       id="path2987-91-4"
       style="fill:#000000;fill-opacity:1;stroke:#000000;stroke-width:1;stroke-miterlimit:4;stroke-opacity:1;stroke-dasharray:1, 1;stroke-dashoffset:0" />
    <path
       d="m 120,604.09448 a 10,10 0 1 1 -20,0 10,10 0 1 1 20,0 z"
       transform="translate(640,198.2677)"
       id="path2987-34-0"
       style="fill:#000000;fill-opacity:1;stroke:#000000;stroke-width:1;stroke-miterlimit:4;stroke-opacity:1;stroke-dasharray:1, 1;stroke-dashoffset:0" />
    <path
       d="m 120,604.09448 a 10,10 0 1 1 -20,0 10,10 0 1 1 20,0 z"
       transform="translate(690,198.2677)"
       id="path2987-95-7"
       style="fill:#000000;fill-opacity:1;stroke:#000000;stroke-width:1;stroke-miterlimit:4;stroke-opacity:1;stroke-dasharray:1, 1;stroke-dashoffset:0" />
    <path
       d="m 120,604.09448 a 10,10 0 1 1 -20,0 10,10 0 1 1 20,0 z"
       transform="translate(740,198.2677)"
       id="path2987-20-5"
       style="fill:#000000;fill-opacity:1;stroke:#000000;stroke-width:1;stroke-miterlimit:4;stroke-opacity:1;stroke-dasharray:1, 1;stroke-dashoffset:0" />
    <path
       d="m 120,604.09448 a 10,10 0 1 1 -20,0 10,10 0 1 1 20,0 z"
       transform="translate(790,198.2677)"
       id="path2987-0-33"
       style="fill:#000000;fill-opacity:1;stroke:#000000;stroke-width:1;stroke-miterlimit:4;stroke-opacity:1;stroke-dasharray:1, 1;stroke-dashoffset:0" />
    <path
       d="m 120,604.09448 a 10,10 0 1 1 -20,0 10,10 0 1 1 20,0 z"
       transform="translate(840,198.2677)"
       id="path2987-97-0"
       style="fill:#000000;fill-opacity:1;stroke:#000000;stroke-width:1;stroke-miterlimit:4;stroke-opacity:1;stroke-dasharray:1, 1;stroke-dashoffset:0" />
    <path
       d="m 120,604.09448 a 10,10 0 1 1 -20,0 10,10 0 1 1 20,0 z"
       transform="translate(890,198.2677)"
       id="path2987-28-4"
       style="fill:#000000;fill-opacity:1;stroke:#000000;stroke-width:1;stroke-miterlimit:4;stroke-opacity:1;stroke-dasharray:1, 1;stroke-dashoffset:0" />
    <path
       d="m 120,604.09448 a 10,10 0 1 1 -20,0 10,10 0 1 1 20,0 z"
       transform="translate(590,148.2677)"
       id="path2987-91-8"
       style="fill:#000000;fill-opacity:1;stroke:#000000;stroke-width:1;stroke-miterlimit:4;stroke-opacity:1;stroke-dasharray:1, 1;stroke-dashoffset:0" />
    <path
       d="m 120,604.09448 a 10,10 0 1 1 -20,0 10,10 0 1 1 20,0 z"
       transform="translate(640,148.2677)"
       id="path2987-34-13"
       style="fill:#000000;fill-opacity:1;stroke:#000000;stroke-width:1;stroke-miterlimit:4;stroke-opacity:1;stroke-dasharray:1, 1;stroke-dashoffset:0" />
    <path
       d="m 120,604.09448 a 10,10 0 1 1 -20,0 10,10 0 1 1 20,0 z"
       transform="translate(690,148.2677)"
       id="path2987-95-9"
       style="fill:#000000;fill-opacity:1;stroke:#000000;stroke-width:1;stroke-miterlimit:4;stroke-opacity:1;stroke-dasharray:1, 1;stroke-dashoffset:0" />
    <path
       d="m 120,604.09448 a 10,10 0 1 1 -20,0 10,10 0 1 1 20,0 z"
       transform="translate(740,148.2677)"
       id="path2987-20-0"
       style="fill:#000000;fill-opacity:1;stroke:#000000;stroke-width:1;stroke-miterlimit:4;stroke-opacity:1;stroke-dasharray:1, 1;stroke-dashoffset:0" />
    <path
       d="m 120,604.09448 a 10,10 0 1 1 -20,0 10,10 0 1 1 20,0 z"
       transform="translate(790,148.2677)"
       id="path2987-0-4"
       style="fill:#000000;fill-opacity:1;stroke:#000000;stroke-width:1;stroke-miterlimit:4;stroke-opacity:1;stroke-dasharray:1, 1;stroke-dashoffset:0" />
    <path
       d="m 120,604.09448 a 10,10 0 1 1 -20,0 10,10 0 1 1 20,0 z"
       transform="translate(840,148.2677)"
       id="path2987-97-6"
       style="fill:#000000;fill-opacity:1;stroke:#000000;stroke-width:1;stroke-miterlimit:4;stroke-opacity:1;stroke-dasharray:1, 1;stroke-dashoffset:0" />
    <path
       d="m 120,604.09448 a 10,10 0 1 1 -20,0 10,10 0 1 1 20,0 z"
       transform="translate(890,148.2677)"
       id="path2987-28-6"
       style="fill:#000000;fill-opacity:1;stroke:#000000;stroke-width:1;stroke-miterlimit:4;stroke-opacity:1;stroke-dasharray:1, 1;stroke-dashoffset:0" />
    <path
       d="m 120,604.09448 a 10,10 0 1 1 -20,0 10,10 0 1 1 20,0 z"
       transform="translate(590,98.2677)"
       id="path2987-91-85"
       style="fill:#000000;fill-opacity:1;stroke:#000000;stroke-width:1;stroke-miterlimit:4;stroke-opacity:1;stroke-dasharray:1, 1;stroke-dashoffset:0" />
    <path
       d="m 120,604.09448 a 10,10 0 1 1 -20,0 10,10 0 1 1 20,0 z"
       transform="translate(640,98.2677)"
       id="path2987-34-8"
       style="fill:#000000;fill-opacity:1;stroke:#000000;stroke-width:1;stroke-miterlimit:4;stroke-opacity:1;stroke-dasharray:1, 1;stroke-dashoffset:0" />
    <path
       d="m 120,604.09448 a 10,10 0 1 1 -20,0 10,10 0 1 1 20,0 z"
       transform="translate(690,98.2677)"
       id="path2987-95-0"
       style="fill:#000000;fill-opacity:1;stroke:#000000;stroke-width:1;stroke-miterlimit:4;stroke-opacity:1;stroke-dasharray:1, 1;stroke-dashoffset:0" />
    <path
       d="m 120,604.09448 a 10,10 0 1 1 -20,0 10,10 0 1 1 20,0 z"
       transform="translate(740,98.2677)"
       id="path2987-20-4"
       style="fill:#000000;fill-opacity:1;stroke:#000000;stroke-width:1;stroke-miterlimit:4;stroke-opacity:1;stroke-dasharray:1, 1;stroke-dashoffset:0" />
    <path
       d="m 120,604.09448 a 10,10 0 1 1 -20,0 10,10 0 1 1 20,0 z"
       transform="translate(790,98.2677)"
       id="path2987-0-1"
       style="fill:#000000;fill-opacity:1;stroke:#000000;stroke-width:1;stroke-miterlimit:4;stroke-opacity:1;stroke-dasharray:1, 1;stroke-dashoffset:0" />
    <path
       d="m 120,604.09448 a 10,10 0 1 1 -20,0 10,10 0 1 1 20,0 z"
       transform="translate(840,98.2677)"
       id="path2987-97-1"
       style="fill:#000000;fill-opacity:1;stroke:#000000;stroke-width:1;stroke-miterlimit:4;stroke-opacity:1;stroke-dasharray:1, 1;stroke-dashoffset:0" />
    <path
       d="m 120,604.09448 a 10,10 0 1 1 -20,0 10,10 0 1 1 20,0 z"
       transform="translate(890,98.2677)"
       id="path2987-28-5"
       style="fill:#000000;fill-opacity:1;stroke:#000000;stroke-width:1;stroke-miterlimit:4;stroke-opacity:1;stroke-dasharray:1, 1;stroke-dashoffset:0" />
    <path
       d="m 120,604.09448 a 10,10 0 1 1 -20,0 10,10 0 1 1 20,0 z"
       transform="translate(590,48.2677)"
       id="path2987-91-9"
       style="fill:#000000;fill-opacity:1;stroke:#000000;stroke-width:1;stroke-miterlimit:4;stroke-opacity:1;stroke-dasharray:1, 1;stroke-dashoffset:0" />
    <path
       d="m 120,604.09448 a 10,10 0 1 1 -20,0 10,10 0 1 1 20,0 z"
       transform="translate(640,48.2677)"
       id="path2987-34-4"
       style="fill:#000000;fill-opacity:1;stroke:#000000;stroke-width:1;stroke-miterlimit:4;stroke-opacity:1;stroke-dasharray:1, 1;stroke-dashoffset:0" />
    <path
       d="m 120,604.09448 a 10,10 0 1 1 -20,0 10,10 0 1 1 20,0 z"
       transform="translate(690,48.2677)"
       id="path2987-95-6"
       style="fill:#000000;fill-opacity:1;stroke:#000000;stroke-width:1;stroke-miterlimit:4;stroke-opacity:1;stroke-dasharray:1, 1;stroke-dashoffset:0" />
    <path
       d="m 120,604.09448 a 10,10 0 1 1 -20,0 10,10 0 1 1 20,0 z"
       transform="translate(740,48.2677)"
       id="path2987-20-6"
       style="fill:#000000;fill-opacity:1;stroke:#000000;stroke-width:1;stroke-miterlimit:4;stroke-opacity:1;stroke-dasharray:1, 1;stroke-dashoffset:0" />
    <path
       d="m 120,604.09448 a 10,10 0 1 1 -20,0 10,10 0 1 1 20,0 z"
       transform="translate(790,48.2677)"
       id="path2987-0-7"
       style="fill:#000000;fill-opacity:1;stroke:#000000;stroke-width:1;stroke-miterlimit:4;stroke-opacity:1;stroke-dasharray:1, 1;stroke-dashoffset:0" />
    <path
       d="m 120,604.09448 a 10,10 0 1 1 -20,0 10,10 0 1 1 20,0 z"
       transform="translate(840,48.2677)"
       id="path2987-97-07"
       style="fill:#000000;fill-opacity:1;stroke:#000000;stroke-width:1;stroke-miterlimit:4;stroke-opacity:1;stroke-dasharray:1, 1;stroke-dashoffset:0" />
    <path
       d="m 120,604.09448 a 10,10 0 1 1 -20,0 10,10 0 1 1 20,0 z"
       transform="translate(890,48.2677)"
       id="path2987-28-1"
       style="fill:#000000;fill-opacity:1;stroke:#000000;stroke-width:1;stroke-miterlimit:4;stroke-opacity:1;stroke-dasharray:1, 1;stroke-dashoffset:0" />
    <path
       d="m 120,604.09448 a 10,10 0 1 1 -20,0 10,10 0 1 1 20,0 z"
       transform="translate(590,-1.7323)"
       id="path2987-91-2"
       style="fill:#000000;fill-opacity:1;stroke:#000000;stroke-width:1;stroke-miterlimit:4;stroke-opacity:1;stroke-dasharray:1, 1;stroke-dashoffset:0" />
    <path
       d="m 120,604.09448 a 10,10 0 1 1 -20,0 10,10 0 1 1 20,0 z"
       transform="translate(640,-1.7323)"
       id="path2987-34-41"
       style="fill:#000000;fill-opacity:1;stroke:#000000;stroke-width:1;stroke-miterlimit:4;stroke-opacity:1;stroke-dasharray:1, 1;stroke-dashoffset:0" />
    <path
       d="m 120,604.09448 a 10,10 0 1 1 -20,0 10,10 0 1 1 20,0 z"
       transform="translate(690,-1.7323)"
       id="path2987-95-1"
       style="fill:#000000;fill-opacity:1;stroke:#000000;stroke-width:1;stroke-miterlimit:4;stroke-opacity:1;stroke-dasharray:1, 1;stroke-dashoffset:0" />
    <path
       d="m 120,604.09448 a 10,10 0 1 1 -20,0 10,10 0 1 1 20,0 z"
       transform="translate(740,-1.7323)"
       id="path2987-20-67"
       style="fill:#000000;fill-opacity:1;stroke:#000000;stroke-width:1;stroke-miterlimit:4;stroke-opacity:1;stroke-dasharray:1, 1;stroke-dashoffset:0" />
    <path
       d="m 120,604.09448 a 10,10 0 1 1 -20,0 10,10 0 1 1 20,0 z"
       transform="translate(790,-1.7323)"
       id="path2987-0-9"
       style="fill:#000000;fill-opacity:1;stroke:#000000;stroke-width:1;stroke-miterlimit:4;stroke-opacity:1;stroke-dasharray:1, 1;stroke-dashoffset:0" />
    <path
       d="m 120,604.09448 a 10,10 0 1 1 -20,0 10,10 0 1 1 20,0 z"
       transform="translate(840,-1.7323)"
       id="path2987-97-3"
       style="fill:#000000;fill-opacity:1;stroke:#000000;stroke-width:1;stroke-miterlimit:4;stroke-opacity:1;stroke-dasharray:1, 1;stroke-dashoffset:0" />
    <path
       d="m 120,604.09448 a 10,10 0 1 1 -20,0 10,10 0 1 1 20,0 z"
       transform="translate(890,-1.7323)"
       id="path2987-28-65"
       style="fill:#000000;fill-opacity:1;stroke:#000000;stroke-width:1;stroke-miterlimit:4;stroke-opacity:1;stroke-dasharray:1, 1;stroke-dashoffset:0" />
  </g>
</svg>
