<?xml version="1.0" encoding="UTF-8" standalone="no"?>
<!DOCTYPE svg PUBLIC "-//W3C//DTD SVG 1.1//EN"
 "http://www.w3.org/Graphics/SVG/1.1/DTD/svg11.dtd">
<!-- Generated by graphviz version 2.38.0 (20140413.2041)
 -->
<!-- Title: %3 Pages: 1 -->
<svg width="116pt" height="98pt"
 viewBox="0.00 0.00 116.00 98.00" xmlns="http://www.w3.org/2000/svg" xmlns:xlink="http://www.w3.org/1999/xlink">
<g id="graph0" class="graph" transform="scale(1 1) rotate(0) translate(4 94)">
<title>%3</title>
<polygon fill="white" stroke="none" points="-4,4 -4,-94 112,-94 112,4 -4,4"/>
<!-- A -->
<g id="node1" class="node"><title>A</title>
<ellipse fill="none" stroke="black" cx="18" cy="-72" rx="18" ry="18"/>
<text text-anchor="middle" x="18" y="-68.3" font-family="Times,serif" font-size="14.00">A</text>
</g>
<!-- C -->
<g id="node3" class="node"><title>C</title>
<ellipse fill="none" stroke="black" cx="90" cy="-45" rx="18" ry="18"/>
<text text-anchor="middle" x="90" y="-41.3" font-family="Times,serif" font-size="14.00">C</text>
</g>
<!-- A&#45;&gt;C -->
<g id="edge1" class="edge"><title>A&#45;&gt;C</title>
<path fill="none" stroke="black" d="M35.2354,-65.7378C43.6285,-62.5004 54.0656,-58.4747 63.5048,-54.8339"/>
<polygon fill="black" stroke="black" points="64.7822,-58.0925 72.8527,-51.2282 62.2631,-51.5615 64.7822,-58.0925"/>
</g>
<!-- B -->
<g id="node2" class="node"><title>B</title>
<ellipse fill="none" stroke="black" cx="18" cy="-18" rx="18" ry="18"/>
<text text-anchor="middle" x="18" y="-14.3" font-family="Times,serif" font-size="14.00">B</text>
</g>
<!-- B&#45;&gt;C -->
<g id="edge2" class="edge"><title>B&#45;&gt;C</title>
<path fill="none" stroke="black" d="M35.2354,-24.2622C43.6285,-27.4996 54.0656,-31.5253 63.5048,-35.1661"/>
<polygon fill="black" stroke="black" points="62.2631,-38.4385 72.8527,-38.7718 64.7822,-31.9075 62.2631,-38.4385"/>
</g>
</g>
</svg>
