<?xml version="1.0" encoding="UTF-8" standalone="no"?>
<!DOCTYPE svg PUBLIC "-//W3C//DTD SVG 1.1//EN"
 "http://www.w3.org/Graphics/SVG/1.1/DTD/svg11.dtd">
<!-- Generated by graphviz version 2.26.3 (20100126.1600)
 -->
<!-- Title: _anonymous_0 Pages: 1 -->
<svg width="120pt" height="98pt"
 viewBox="0.00 0.00 120.00 98.00" xmlns="http://www.w3.org/2000/svg" xmlns:xlink="http://www.w3.org/1999/xlink">
<g id="graph1" class="graph" transform="scale(1 1) rotate(0) translate(4 94)">
<title>_anonymous_0</title>
<polygon fill="white" stroke="white" points="-4,5 -4,-94 117,-94 117,5 -4,5"/>
<!-- A -->
<g id="node2" class="node"><title>A</title>
<ellipse fill="none" stroke="black" cx="19" cy="-72" rx="17.8879" ry="18.3848"/>
<text text-anchor="middle" x="19" y="-68.4" font-family="Times Roman,serif" font-size="14.00">A</text>
</g>
<!-- C -->
<g id="node5" class="node"><title>C</title>
<ellipse fill="none" stroke="black" cx="93" cy="-45" rx="17.8879" ry="18.3848"/>
<text text-anchor="middle" x="93" y="-41.4" font-family="Times Roman,serif" font-size="14.00">C</text>
</g>
<!-- A&#45;&gt;C -->
<g id="edge3" class="edge"><title>A&#45;&gt;C</title>
<path fill="none" stroke="black" d="M36.537,-65.6014C45.3841,-62.3734 56.3067,-58.3881 66.1805,-54.7855"/>
<polygon fill="black" stroke="black" points="67.3944,-58.0684 75.5889,-51.3527 64.995,-51.4924 67.3944,-58.0684"/>
</g>
<!-- B -->
<g id="node3" class="node"><title>B</title>
<ellipse fill="none" stroke="black" cx="19" cy="-18" rx="17.8879" ry="18.3848"/>
<text text-anchor="middle" x="19" y="-14.4" font-family="Times Roman,serif" font-size="14.00">B</text>
</g>
<!-- B&#45;&gt;C -->
<g id="edge4" class="edge"><title>B&#45;&gt;C</title>
<path fill="none" stroke="black" d="M36.537,-24.3986C45.3841,-27.6266 56.3067,-31.6119 66.1805,-35.2145"/>
<polygon fill="black" stroke="black" points="64.995,-38.5076 75.5889,-38.6473 67.3944,-31.9316 64.995,-38.5076"/>
</g>
</g>
</svg>
