<?xml version="1.0" encoding="UTF-8" standalone="no"?>
<!DOCTYPE svg PUBLIC "-//W3C//DTD SVG 1.1//EN"
 "http://www.w3.org/Graphics/SVG/1.1/DTD/svg11.dtd">
<!-- Generated by graphviz version 2.38.0 (20140413.2041)
 -->
<!-- Title: %3 Pages: 1 -->
<svg width="188pt" height="98pt"
 viewBox="0.00 0.00 188.00 98.00" xmlns="http://www.w3.org/2000/svg" xmlns:xlink="http://www.w3.org/1999/xlink">
<g id="graph0" class="graph" transform="scale(1 1) rotate(0) translate(4 94)">
<title>%3</title>
<polygon fill="white" stroke="none" points="-4,4 -4,-94 184,-94 184,4 -4,4"/>
<!-- A -->
<g id="node1" class="node"><title>A</title>
<ellipse fill="none" stroke="black" cx="18" cy="-18" rx="18" ry="18"/>
<text text-anchor="middle" x="18" y="-14.3" font-family="Times,serif" font-size="14.00">A</text>
</g>
<!-- C -->
<g id="node3" class="node"><title>C</title>
<ellipse fill="none" stroke="black" cx="90" cy="-64" rx="18" ry="18"/>
<text text-anchor="middle" x="90" y="-60.3" font-family="Times,serif" font-size="14.00">C</text>
</g>
<!-- A&#45;&gt;C -->
<g id="edge1" class="edge"><title>A&#45;&gt;C</title>
<path fill="none" stroke="black" d="M33.504,-27.5312C42.8898,-33.699 55.3117,-41.8619 66.0232,-48.901"/>
<polygon fill="black" stroke="black" points="64.2353,-51.9141 74.5145,-54.481 68.0796,-46.0642 64.2353,-51.9141"/>
</g>
<!-- D -->
<g id="node4" class="node"><title>D</title>
<ellipse fill="none" stroke="black" cx="162" cy="-41" rx="18" ry="18"/>
<text text-anchor="middle" x="162" y="-37.3" font-family="Times,serif" font-size="14.00">D</text>
</g>
<!-- A&#45;&gt;D -->
<g id="edge3" class="edge"><title>A&#45;&gt;D</title>
<path fill="none" stroke="black" d="M35.8469,-20.7287C60.0802,-24.6538 105.035,-31.9353 133.954,-36.6193"/>
<polygon fill="black" stroke="black" points="133.744,-40.1308 144.175,-38.2748 134.863,-33.2209 133.744,-40.1308"/>
</g>
<!-- B -->
<g id="node2" class="node"><title>B</title>
<ellipse fill="none" stroke="black" cx="18" cy="-72" rx="18" ry="18"/>
<text text-anchor="middle" x="18" y="-68.3" font-family="Times,serif" font-size="14.00">B</text>
</g>
<!-- B&#45;&gt;C -->
<g id="edge2" class="edge"><title>B&#45;&gt;C</title>
<path fill="none" stroke="black" d="M35.945,-70.0634C43.6544,-69.1824 52.9731,-68.1174 61.6358,-67.1273"/>
<polygon fill="black" stroke="black" points="62.1868,-70.5872 71.7247,-65.9743 61.3919,-63.6325 62.1868,-70.5872"/>
</g>
<!-- C&#45;&gt;D -->
<g id="edge4" class="edge"><title>C&#45;&gt;D</title>
<path fill="none" stroke="black" d="M107.235,-58.6655C115.422,-55.9758 125.552,-52.6472 134.805,-49.607"/>
<polygon fill="black" stroke="black" points="135.959,-52.912 144.367,-46.4653 133.774,-46.2617 135.959,-52.912"/>
</g>
</g>
</svg>
