<?xml version="1.0" encoding="UTF-8" standalone="no"?>
<!DOCTYPE svg PUBLIC "-//W3C//DTD SVG 1.1//EN"
 "http://www.w3.org/Graphics/SVG/1.1/DTD/svg11.dtd">
<!-- Generated by graphviz version 2.26.3 (20100126.1600)
 -->
<!-- Title: _anonymous_0 Pages: 1 -->
<svg width="196pt" height="98pt"
 viewBox="0.00 0.00 196.00 98.00" xmlns="http://www.w3.org/2000/svg" xmlns:xlink="http://www.w3.org/1999/xlink">
<g id="graph1" class="graph" transform="scale(1 1) rotate(0) translate(4 94)">
<title>_anonymous_0</title>
<polygon fill="white" stroke="white" points="-4,5 -4,-94 193,-94 193,5 -4,5"/>
<!-- A -->
<g id="node2" class="node"><title>A</title>
<ellipse fill="none" stroke="black" cx="19" cy="-18" rx="17.8879" ry="18.3848"/>
<text text-anchor="middle" x="19" y="-14.4" font-family="Times Roman,serif" font-size="14.00">A</text>
</g>
<!-- C -->
<g id="node5" class="node"><title>C</title>
<ellipse fill="none" stroke="black" cx="93" cy="-64" rx="17.8879" ry="18.3848"/>
<text text-anchor="middle" x="93" y="-60.4" font-family="Times Roman,serif" font-size="14.00">C</text>
</g>
<!-- A&#45;&gt;C -->
<g id="edge3" class="edge"><title>A&#45;&gt;C</title>
<path fill="none" stroke="black" d="M34.6935,-27.7554C44.6026,-33.9151 57.6045,-41.9974 68.8154,-48.9664"/>
<polygon fill="black" stroke="black" points="66.9885,-51.9518 77.3291,-54.2586 70.684,-46.0068 66.9885,-51.9518"/>
</g>
<!-- D -->
<g id="node8" class="node"><title>D</title>
<ellipse fill="none" stroke="black" cx="168" cy="-41" rx="19.799" ry="19.799"/>
<text text-anchor="middle" x="168" y="-37.4" font-family="Times Roman,serif" font-size="14.00">D</text>
</g>
<!-- A&#45;&gt;D -->
<g id="edge7" class="edge"><title>A&#45;&gt;D</title>
<path fill="none" stroke="black" d="M37.5697,-20.8665C62.6919,-24.7444 107.81,-31.709 137.833,-36.3433"/>
<polygon fill="black" stroke="black" points="137.348,-39.8098 147.765,-37.8764 138.416,-32.8918 137.348,-39.8098"/>
</g>
<!-- B -->
<g id="node3" class="node"><title>B</title>
<ellipse fill="none" stroke="black" cx="19" cy="-72" rx="17.8879" ry="18.3848"/>
<text text-anchor="middle" x="19" y="-68.4" font-family="Times Roman,serif" font-size="14.00">B</text>
</g>
<!-- B&#45;&gt;C -->
<g id="edge4" class="edge"><title>B&#45;&gt;C</title>
<path fill="none" stroke="black" d="M37.6733,-69.9813C45.7977,-69.103 55.4992,-68.0541 64.493,-67.0818"/>
<polygon fill="black" stroke="black" points="65.0231,-70.545 74.589,-65.9904 64.2707,-63.5856 65.0231,-70.545"/>
</g>
<!-- C&#45;&gt;D -->
<g id="edge8" class="edge"><title>C&#45;&gt;D</title>
<path fill="none" stroke="black" d="M110.774,-58.5493C119.261,-55.9465 129.634,-52.7657 139.205,-49.8305"/>
<polygon fill="black" stroke="black" points="140.243,-53.1732 148.777,-46.8951 138.19,-46.4808 140.243,-53.1732"/>
</g>
</g>
</svg>
