<?xml version="1.0" encoding="UTF-8" standalone="no"?>
<!DOCTYPE svg PUBLIC "-//W3C//DTD SVG 1.1//EN"
 "http://www.w3.org/Graphics/SVG/1.1/DTD/svg11.dtd">
<!-- Generated by graphviz version 2.38.0 (20140413.2041)
 -->
<!-- Title: %3 Pages: 1 -->
<svg width="332pt" height="376pt"
 viewBox="0.00 0.00 332.00 376.00" xmlns="http://www.w3.org/2000/svg" xmlns:xlink="http://www.w3.org/1999/xlink">
<g id="graph0" class="graph" transform="scale(1 1) rotate(0) translate(4 372)">
<title>%3</title>
<polygon fill="white" stroke="none" points="-4,4 -4,-372 328,-372 328,4 -4,4"/>
<g id="clust1" class="cluster"><title>cluster_pixels</title>
<polygon fill="none" stroke="black" points="8,-86 8,-323 186,-323 186,-86 8,-86"/>
<text text-anchor="middle" x="97" y="-307.8" font-family="Times,serif" font-size="14.00">System input nodes</text>
</g>
<!-- A -->
<g id="node1" class="node"><title>A</title>
<polygon fill="none" stroke="black" points="178,-292 142,-292 142,-256 178,-256 178,-292"/>
</g>
<!-- AB -->
<g id="node9" class="node"><title>AB</title>
<ellipse fill="none" stroke="black" cx="233" cy="-326" rx="18" ry="18"/>
</g>
<!-- A&#45;&gt;AB -->
<g id="edge5" class="edge"><title>A&#45;&gt;AB</title>
<path fill="none" stroke="black" d="M178.316,-287.632C183.915,-291.966 190.18,-296.738 196,-301 200.156,-304.043 204.63,-307.224 208.965,-310.258"/>
<polygon fill="black" stroke="black" points="207.306,-313.367 217.519,-316.188 211.294,-307.614 207.306,-313.367"/>
</g>
<!-- AC -->
<g id="node10" class="node"><title>AC</title>
<ellipse fill="none" stroke="black" cx="233" cy="-180" rx="18" ry="18"/>
</g>
<!-- A&#45;&gt;AC -->
<g id="edge7" class="edge"><title>A&#45;&gt;AC</title>
<path fill="none" stroke="black" d="M178.051,-256.314C180.786,-253.273 183.527,-250.094 186,-247 197.166,-233.03 208.551,-216.469 217.202,-203.308"/>
<polygon fill="black" stroke="black" points="220.207,-205.106 222.717,-194.813 214.336,-201.294 220.207,-205.106"/>
</g>
<!-- AD -->
<g id="node11" class="node"><title>AD</title>
<ellipse fill="none" stroke="black" cx="233" cy="-272" rx="18" ry="18"/>
</g>
<!-- A&#45;&gt;AD -->
<g id="edge9" class="edge"><title>A&#45;&gt;AD</title>
<path fill="none" stroke="black" d="M178.332,-283.605C184.174,-285.808 190.79,-287.196 197,-286 200.277,-285.369 203.638,-284.433 206.919,-283.34"/>
<polygon fill="black" stroke="black" points="208.266,-286.572 216.358,-279.733 205.767,-280.034 208.266,-286.572"/>
</g>
<!-- ABA -->
<g id="node15" class="node"><title>ABA</title>
<ellipse fill="none" stroke="black" cx="306" cy="-350" rx="18" ry="18"/>
</g>
<!-- A&#45;&gt;ABA -->
<g id="edge17" class="edge"><title>A&#45;&gt;ABA</title>
<path fill="none" stroke="black" d="M167.429,-292C175.332,-311.086 190.757,-340.206 215,-353 234.508,-363.295 259.851,-361.331 278.672,-357.493"/>
<polygon fill="black" stroke="black" points="279.699,-360.848 288.641,-355.165 278.107,-354.031 279.699,-360.848"/>
</g>
<!-- B -->
<g id="node2" class="node"><title>B</title>
<polygon fill="none" stroke="black" points="178,-238 142,-238 142,-202 178,-202 178,-238"/>
</g>
<!-- B&#45;&gt;AB -->
<g id="edge6" class="edge"><title>B&#45;&gt;AB</title>
<path fill="none" stroke="black" d="M178.041,-237.198C180.835,-240.349 183.598,-243.691 186,-247 201.544,-268.416 201.501,-276.24 215,-299 215.668,-300.126 216.357,-301.273 217.058,-302.43"/>
<polygon fill="black" stroke="black" points="214.266,-304.57 222.504,-311.233 220.219,-300.887 214.266,-304.57"/>
</g>
<!-- BC -->
<g id="node12" class="node"><title>BC</title>
<ellipse fill="none" stroke="black" cx="233" cy="-72" rx="18" ry="18"/>
</g>
<!-- B&#45;&gt;BC -->
<g id="edge11" class="edge"><title>B&#45;&gt;BC</title>
<path fill="none" stroke="black" d="M178.134,-203.792C181.049,-200.432 183.83,-196.763 186,-193 207.842,-155.126 196.751,-138.73 215,-99 215.546,-97.8108 216.136,-96.6111 216.758,-95.4131"/>
<polygon fill="black" stroke="black" points="219.957,-96.872 221.92,-86.4606 213.893,-93.3753 219.957,-96.872"/>
</g>
<!-- BD -->
<g id="node13" class="node"><title>BD</title>
<ellipse fill="none" stroke="black" cx="233" cy="-126" rx="18" ry="18"/>
</g>
<!-- B&#45;&gt;BD -->
<g id="edge13" class="edge"><title>B&#45;&gt;BD</title>
<path fill="none" stroke="black" d="M178.051,-202.314C180.786,-199.273 183.527,-196.094 186,-193 197.166,-179.03 208.551,-162.469 217.202,-149.308"/>
<polygon fill="black" stroke="black" points="220.207,-151.106 222.717,-140.813 214.336,-147.294 220.207,-151.106"/>
</g>
<!-- BAB -->
<g id="node16" class="node"><title>BAB</title>
<ellipse fill="none" stroke="black" cx="306" cy="-261" rx="18" ry="18"/>
</g>
<!-- B&#45;&gt;BAB -->
<g id="edge19" class="edge"><title>B&#45;&gt;BAB</title>
<path fill="none" stroke="black" d="M178.278,-224.705C196.415,-229.666 225.749,-237.752 251,-245 260.052,-247.598 269.936,-250.506 278.745,-253.123"/>
<polygon fill="black" stroke="black" points="277.895,-256.521 288.478,-256.025 279.895,-249.813 277.895,-256.521"/>
</g>
<!-- C -->
<g id="node3" class="node"><title>C</title>
<polygon fill="none" stroke="black" points="178,-130 142,-130 142,-94 178,-94 178,-130"/>
</g>
<!-- C&#45;&gt;AC -->
<g id="edge8" class="edge"><title>C&#45;&gt;AC</title>
<path fill="none" stroke="black" d="M178.187,-128.461C188.359,-138.203 201.292,-150.59 211.931,-160.779"/>
<polygon fill="black" stroke="black" points="209.556,-163.351 219.199,-167.74 214.398,-158.295 209.556,-163.351"/>
</g>
<!-- C&#45;&gt;BC -->
<g id="edge12" class="edge"><title>C&#45;&gt;BC</title>
<path fill="none" stroke="black" d="M178.187,-102.317C187.144,-97.2709 198.243,-91.018 208.03,-85.504"/>
<polygon fill="black" stroke="black" points="209.905,-88.4653 216.899,-80.5074 206.469,-82.3666 209.905,-88.4653"/>
</g>
<!-- CD -->
<g id="node14" class="node"><title>CD</title>
<ellipse fill="none" stroke="black" cx="233" cy="-18" rx="18" ry="18"/>
</g>
<!-- C&#45;&gt;CD -->
<g id="edge15" class="edge"><title>C&#45;&gt;CD</title>
<path fill="none" stroke="black" d="M174.69,-93.8759C186.288,-78.5202 202.958,-56.4504 215.331,-40.0682"/>
<polygon fill="black" stroke="black" points="218.127,-42.1746 221.361,-32.0855 212.541,-37.9555 218.127,-42.1746"/>
</g>
<!-- D -->
<g id="node4" class="node"><title>D</title>
<polygon fill="none" stroke="black" points="178,-184 142,-184 142,-148 178,-148 178,-184"/>
</g>
<!-- D&#45;&gt;AD -->
<g id="edge10" class="edge"><title>D&#45;&gt;AD</title>
<path fill="none" stroke="black" d="M178.252,-183.531C180.963,-186.591 183.644,-189.816 186,-193 198.666,-210.115 210.69,-230.987 219.266,-246.978"/>
<polygon fill="black" stroke="black" points="216.38,-249.009 224.135,-256.227 222.574,-245.748 216.38,-249.009"/>
</g>
<!-- D&#45;&gt;BD -->
<g id="edge14" class="edge"><title>D&#45;&gt;BD</title>
<path fill="none" stroke="black" d="M178.187,-156.317C187.144,-151.271 198.243,-145.018 208.03,-139.504"/>
<polygon fill="black" stroke="black" points="209.905,-142.465 216.899,-134.507 206.469,-136.367 209.905,-142.465"/>
</g>
<!-- D&#45;&gt;CD -->
<g id="edge16" class="edge"><title>D&#45;&gt;CD</title>
<path fill="none" stroke="black" d="M178.134,-149.792C181.049,-146.432 183.83,-142.763 186,-139 207.842,-101.126 196.751,-84.73 215,-45 215.546,-43.8108 216.136,-42.6111 216.758,-41.4131"/>
<polygon fill="black" stroke="black" points="219.957,-42.872 221.92,-32.4606 213.893,-39.3753 219.957,-42.872"/>
</g>
<!-- A0 -->
<!-- A0&#45;&gt;A -->
<g id="edge1" class="edge"><title>A0&#45;&gt;A</title>
<path fill="none" stroke="black" stroke-dasharray="5,2" d="M52.2417,-274C72.7858,-274 107.369,-274 131.592,-274"/>
<polygon fill="black" stroke="black" points="131.905,-277.5 141.905,-274 131.905,-270.5 131.905,-277.5"/>
<text text-anchor="middle" x="97" y="-277.8" font-family="Times,serif" font-size="14.00">pixel data</text>
</g>
<!-- B0 -->
<!-- B0&#45;&gt;B -->
<g id="edge2" class="edge"><title>B0&#45;&gt;B</title>
<path fill="none" stroke="black" stroke-dasharray="5,2" d="M52.2417,-220C72.7858,-220 107.369,-220 131.592,-220"/>
<polygon fill="black" stroke="black" points="131.905,-223.5 141.905,-220 131.905,-216.5 131.905,-223.5"/>
<text text-anchor="middle" x="97" y="-223.8" font-family="Times,serif" font-size="14.00">pixel data</text>
</g>
<!-- C0 -->
<!-- C0&#45;&gt;C -->
<g id="edge3" class="edge"><title>C0&#45;&gt;C</title>
<path fill="none" stroke="black" stroke-dasharray="5,2" d="M52.2417,-112C72.7858,-112 107.369,-112 131.592,-112"/>
<polygon fill="black" stroke="black" points="131.905,-115.5 141.905,-112 131.905,-108.5 131.905,-115.5"/>
<text text-anchor="middle" x="97" y="-115.8" font-family="Times,serif" font-size="14.00">pixel data</text>
</g>
<!-- D0 -->
<!-- D0&#45;&gt;D -->
<g id="edge4" class="edge"><title>D0&#45;&gt;D</title>
<path fill="none" stroke="black" stroke-dasharray="5,2" d="M52.2417,-166C72.7858,-166 107.369,-166 131.592,-166"/>
<polygon fill="black" stroke="black" points="131.905,-169.5 141.905,-166 131.905,-162.5 131.905,-169.5"/>
<text text-anchor="middle" x="97" y="-169.8" font-family="Times,serif" font-size="14.00">pixel data</text>
</g>
<!-- AB&#45;&gt;ABA -->
<g id="edge18" class="edge"><title>AB&#45;&gt;ABA</title>
<path fill="none" stroke="black" d="M250.467,-331.566C258.98,-334.444 269.567,-338.023 279.141,-341.259"/>
<polygon fill="black" stroke="black" points="278.028,-344.577 288.622,-344.464 280.269,-337.946 278.028,-344.577"/>
</g>
<!-- AB&#45;&gt;BAB -->
<g id="edge20" class="edge"><title>AB&#45;&gt;BAB</title>
<path fill="none" stroke="black" d="M247.022,-314.078C257.531,-304.457 272.504,-290.75 284.601,-279.675"/>
<polygon fill="black" stroke="black" points="287.048,-282.181 292.06,-272.846 282.321,-277.017 287.048,-282.181"/>
</g>
<!-- ACBD -->
<g id="node17" class="node"><title>ACBD</title>
<ellipse fill="none" stroke="black" cx="306" cy="-150" rx="18" ry="18"/>
</g>
<!-- AC&#45;&gt;ACBD -->
<g id="edge21" class="edge"><title>AC&#45;&gt;ACBD</title>
<path fill="none" stroke="black" d="M249.757,-173.342C258.459,-169.665 269.482,-165.008 279.388,-160.822"/>
<polygon fill="black" stroke="black" points="280.945,-163.964 288.795,-156.847 278.221,-157.516 280.945,-163.964"/>
</g>
<!-- BD&#45;&gt;ACBD -->
<g id="edge22" class="edge"><title>BD&#45;&gt;ACBD</title>
<path fill="none" stroke="black" d="M250.467,-131.566C258.98,-134.444 269.567,-138.023 279.141,-141.259"/>
<polygon fill="black" stroke="black" points="278.028,-144.577 288.622,-144.464 280.269,-137.946 278.028,-144.577"/>
</g>
</g>
</svg>
