<?xml version="1.0" encoding="UTF-8" standalone="no"?>
<!DOCTYPE svg PUBLIC "-//W3C//DTD SVG 1.1//EN"
 "http://www.w3.org/Graphics/SVG/1.1/DTD/svg11.dtd">
<!-- Generated by graphviz version 2.26.3 (20100126.1600)
 -->
<!-- Title: _anonymous_0 Pages: 1 -->
<svg width="348pt" height="376pt"
 viewBox="0.00 0.00 348.00 376.00" xmlns="http://www.w3.org/2000/svg" xmlns:xlink="http://www.w3.org/1999/xlink">
<g id="graph1" class="graph" transform="scale(1 1) rotate(0) translate(4 372)">
<title>_anonymous_0</title>
<polygon fill="white" stroke="white" points="-4,5 -4,-372 345,-372 345,5 -4,5"/>
<g id="graph2" class="cluster"><title>cluster_pixels</title>
<polygon fill="none" stroke="black" points="8,-86 8,-326 200,-326 200,-86 8,-86"/>
<text text-anchor="middle" x="104" y="-309.4" font-family="Times Roman,serif" font-size="14.00">System input nodes</text>
</g>
<!-- A -->
<g id="node2" class="node"><title>A</title>
<polygon fill="none" stroke="black" points="192,-292 156,-292 156,-256 192,-256 192,-292"/>
</g>
<!-- AB -->
<g id="node16" class="node"><title>AB</title>
<ellipse fill="none" stroke="black" cx="248" cy="-326" rx="18" ry="18"/>
</g>
<!-- A&#45;&gt;AB -->
<g id="edge12" class="edge"><title>A&#45;&gt;AB</title>
<path fill="none" stroke="black" d="M192.154,-287.956C197.817,-292.217 204.12,-296.867 210,-301 214.488,-304.155 219.338,-307.438 224.024,-310.549"/>
<polygon fill="black" stroke="black" points="222.412,-313.677 232.693,-316.236 226.252,-307.824 222.412,-313.677"/>
</g>
<!-- AC -->
<g id="node19" class="node"><title>AC</title>
<ellipse fill="none" stroke="black" cx="248" cy="-180" rx="18" ry="18"/>
</g>
<!-- A&#45;&gt;AC -->
<g id="edge16" class="edge"><title>A&#45;&gt;AC</title>
<path fill="none" stroke="black" d="M192.268,-255.736C194.931,-252.874 197.586,-249.901 200,-247 211.527,-233.149 223.33,-216.711 232.346,-203.584"/>
<polygon fill="black" stroke="black" points="235.387,-205.337 238.106,-195.097 229.595,-201.406 235.387,-205.337"/>
</g>
<!-- AD -->
<g id="node22" class="node"><title>AD</title>
<ellipse fill="none" stroke="black" cx="248" cy="-272" rx="18" ry="18"/>
</g>
<!-- A&#45;&gt;AD -->
<g id="edge20" class="edge"><title>A&#45;&gt;AD</title>
<path fill="none" stroke="black" d="M192.327,-283.638C198.497,-285.843 205.472,-287.225 212,-286 215.295,-285.382 218.677,-284.471 221.985,-283.405"/>
<polygon fill="black" stroke="black" points="223.361,-286.629 231.53,-279.883 220.937,-280.062 223.361,-286.629"/>
</g>
<!-- ABA -->
<g id="node34" class="node"><title>ABA</title>
<ellipse fill="none" stroke="black" cx="322" cy="-350" rx="18" ry="18"/>
</g>
<!-- A&#45;&gt;ABA -->
<g id="edge36" class="edge"><title>A&#45;&gt;ABA</title>
<path fill="none" stroke="black" d="M180.856,-292.022C189.218,-311.126 205.358,-340.263 230,-353 249.884,-363.278 275.549,-361.411 294.718,-357.613"/>
<polygon fill="black" stroke="black" points="295.641,-360.992 304.621,-355.368 294.094,-354.165 295.641,-360.992"/>
</g>
<!-- B -->
<g id="node3" class="node"><title>B</title>
<polygon fill="none" stroke="black" points="192,-238 156,-238 156,-202 192,-202 192,-238"/>
</g>
<!-- B&#45;&gt;AB -->
<g id="edge13" class="edge"><title>B&#45;&gt;AB</title>
<path fill="none" stroke="black" d="M192.257,-237.759C194.978,-240.739 197.653,-243.88 200,-247 216.039,-268.323 215.926,-276.332 230,-299 230.685,-300.104 231.393,-301.228 232.114,-302.36"/>
<polygon fill="black" stroke="black" points="229.339,-304.512 237.735,-310.975 235.202,-300.687 229.339,-304.512"/>
</g>
<!-- BC -->
<g id="node25" class="node"><title>BC</title>
<ellipse fill="none" stroke="black" cx="248" cy="-72" rx="18" ry="18"/>
</g>
<!-- B&#45;&gt;BC -->
<g id="edge24" class="edge"><title>B&#45;&gt;BC</title>
<path fill="none" stroke="black" d="M192.071,-203.554C195.006,-200.27 197.8,-196.689 200,-193 222.461,-155.335 210.986,-138.517 230,-99 230.563,-97.8292 231.171,-96.6502 231.811,-95.4741"/>
<polygon fill="black" stroke="black" points="234.942,-97.0606 237.133,-86.6947 228.956,-93.4318 234.942,-97.0606"/>
</g>
<!-- BD -->
<g id="node28" class="node"><title>BD</title>
<ellipse fill="none" stroke="black" cx="248" cy="-126" rx="18" ry="18"/>
</g>
<!-- B&#45;&gt;BD -->
<g id="edge28" class="edge"><title>B&#45;&gt;BD</title>
<path fill="none" stroke="black" d="M192.268,-201.736C194.931,-198.874 197.586,-195.901 200,-193 211.527,-179.149 223.33,-162.711 232.346,-149.584"/>
<polygon fill="black" stroke="black" points="235.387,-151.337 238.106,-141.097 229.595,-147.406 235.387,-151.337"/>
</g>
<!-- BAB -->
<g id="node37" class="node"><title>BAB</title>
<ellipse fill="none" stroke="black" cx="322" cy="-261" rx="18" ry="18"/>
</g>
<!-- B&#45;&gt;BAB -->
<g id="edge40" class="edge"><title>B&#45;&gt;BAB</title>
<path fill="none" stroke="black" d="M192,-224.817C210.56,-229.802 240.331,-237.846 266,-245 275.341,-247.604 285.543,-250.502 294.65,-253.109"/>
<polygon fill="black" stroke="black" points="293.784,-256.502 304.361,-255.897 295.716,-249.773 293.784,-256.502"/>
</g>
<!-- C -->
<g id="node4" class="node"><title>C</title>
<polygon fill="none" stroke="black" points="192,-130 156,-130 156,-94 192,-94 192,-130"/>
</g>
<!-- C&#45;&gt;AC -->
<g id="edge17" class="edge"><title>C&#45;&gt;AC</title>
<path fill="none" stroke="black" d="M192.292,-128.809C202.762,-138.43 215.944,-150.543 226.857,-160.571"/>
<polygon fill="black" stroke="black" points="224.599,-163.249 234.33,-167.439 229.335,-158.095 224.599,-163.249"/>
</g>
<!-- C&#45;&gt;BC -->
<g id="edge25" class="edge"><title>C&#45;&gt;BC</title>
<path fill="none" stroke="black" d="M192.292,-102.112C201.503,-97.1333 212.814,-91.0194 222.831,-85.6046"/>
<polygon fill="black" stroke="black" points="224.796,-88.5213 231.929,-80.6871 221.467,-82.3634 224.796,-88.5213"/>
</g>
<!-- CD -->
<g id="node31" class="node"><title>CD</title>
<ellipse fill="none" stroke="black" cx="248" cy="-18" rx="18" ry="18"/>
</g>
<!-- C&#45;&gt;CD -->
<g id="edge32" class="edge"><title>C&#45;&gt;CD</title>
<path fill="none" stroke="black" d="M188.268,-93.8759C200.285,-78.611 217.525,-56.7113 230.398,-40.3596"/>
<polygon fill="black" stroke="black" points="233.245,-42.4013 236.68,-32.3789 227.745,-38.0713 233.245,-42.4013"/>
</g>
<!-- D -->
<g id="node5" class="node"><title>D</title>
<polygon fill="none" stroke="black" points="192,-184 156,-184 156,-148 192,-148 192,-184"/>
</g>
<!-- D&#45;&gt;AD -->
<g id="edge21" class="edge"><title>D&#45;&gt;AD</title>
<path fill="none" stroke="black" d="M192.195,-183.806C194.924,-186.78 197.618,-189.907 200,-193 213.179,-210.112 225.767,-231.067 234.744,-247.093"/>
<polygon fill="black" stroke="black" points="231.7,-248.822 239.589,-255.894 237.832,-245.446 231.7,-248.822"/>
</g>
<!-- D&#45;&gt;BD -->
<g id="edge29" class="edge"><title>D&#45;&gt;BD</title>
<path fill="none" stroke="black" d="M192.292,-156.112C201.503,-151.133 212.814,-145.019 222.831,-139.605"/>
<polygon fill="black" stroke="black" points="224.796,-142.521 231.929,-134.687 221.467,-136.363 224.796,-142.521"/>
</g>
<!-- D&#45;&gt;CD -->
<g id="edge33" class="edge"><title>D&#45;&gt;CD</title>
<path fill="none" stroke="black" d="M192.071,-149.554C195.006,-146.27 197.8,-142.689 200,-139 222.461,-101.335 210.986,-84.5173 230,-45 230.563,-43.8292 231.171,-42.6502 231.811,-41.4741"/>
<polygon fill="black" stroke="black" points="234.942,-43.0606 237.133,-32.6947 228.956,-39.4318 234.942,-43.0606"/>
</g>
<!-- A0 -->
<!-- A0&#45;&gt;A -->
<g id="edge3" class="edge"><title>A0&#45;&gt;A</title>
<path fill="none" stroke="black" stroke-dasharray="5,2" d="M52.0159,-274C75.6171,-274 117.28,-274 145.263,-274"/>
<polygon fill="black" stroke="black" points="145.609,-277.5 155.609,-274 145.609,-270.5 145.609,-277.5"/>
<text text-anchor="middle" x="104" y="-279.4" font-family="Times Roman,serif" font-size="14.00">pixel data</text>
</g>
<!-- B0 -->
<!-- B0&#45;&gt;B -->
<g id="edge5" class="edge"><title>B0&#45;&gt;B</title>
<path fill="none" stroke="black" stroke-dasharray="5,2" d="M52.0159,-220C75.6171,-220 117.28,-220 145.263,-220"/>
<polygon fill="black" stroke="black" points="145.609,-223.5 155.609,-220 145.609,-216.5 145.609,-223.5"/>
<text text-anchor="middle" x="104" y="-225.4" font-family="Times Roman,serif" font-size="14.00">pixel data</text>
</g>
<!-- C0 -->
<!-- C0&#45;&gt;C -->
<g id="edge7" class="edge"><title>C0&#45;&gt;C</title>
<path fill="none" stroke="black" stroke-dasharray="5,2" d="M52.0159,-112C75.6171,-112 117.28,-112 145.263,-112"/>
<polygon fill="black" stroke="black" points="145.609,-115.5 155.609,-112 145.609,-108.5 145.609,-115.5"/>
<text text-anchor="middle" x="104" y="-117.4" font-family="Times Roman,serif" font-size="14.00">pixel data</text>
</g>
<!-- D0 -->
<!-- D0&#45;&gt;D -->
<g id="edge9" class="edge"><title>D0&#45;&gt;D</title>
<path fill="none" stroke="black" stroke-dasharray="5,2" d="M52.0159,-166C75.6171,-166 117.28,-166 145.263,-166"/>
<polygon fill="black" stroke="black" points="145.609,-169.5 155.609,-166 145.609,-162.5 145.609,-169.5"/>
<text text-anchor="middle" x="104" y="-171.4" font-family="Times Roman,serif" font-size="14.00">pixel data</text>
</g>
<!-- AB&#45;&gt;ABA -->
<g id="edge37" class="edge"><title>AB&#45;&gt;ABA</title>
<path fill="none" stroke="black" d="M265.163,-331.566C274.065,-334.454 285.142,-338.046 295.147,-341.291"/>
<polygon fill="black" stroke="black" points="294.082,-344.625 304.674,-344.381 296.241,-337.966 294.082,-344.625"/>
</g>
<!-- AB&#45;&gt;BAB -->
<g id="edge41" class="edge"><title>AB&#45;&gt;BAB</title>
<path fill="none" stroke="black" d="M261.573,-314.078C272.457,-304.517 287.936,-290.921 300.503,-279.883"/>
<polygon fill="black" stroke="black" points="303.059,-282.296 308.263,-273.067 298.44,-277.036 303.059,-282.296"/>
</g>
<!-- ACBD -->
<g id="node40" class="node"><title>ACBD</title>
<ellipse fill="none" stroke="black" cx="322" cy="-150" rx="18" ry="18"/>
</g>
<!-- AC&#45;&gt;ACBD -->
<g id="edge44" class="edge"><title>AC&#45;&gt;ACBD</title>
<path fill="none" stroke="black" d="M264.792,-173.193C273.969,-169.472 285.54,-164.781 295.869,-160.593"/>
<polygon fill="black" stroke="black" points="297.322,-163.781 305.275,-156.781 294.692,-157.294 297.322,-163.781"/>
</g>
<!-- BD&#45;&gt;ACBD -->
<g id="edge45" class="edge"><title>BD&#45;&gt;ACBD</title>
<path fill="none" stroke="black" d="M265.163,-131.566C274.065,-134.454 285.142,-138.046 295.147,-141.291"/>
<polygon fill="black" stroke="black" points="294.082,-144.625 304.674,-144.381 296.241,-137.966 294.082,-144.625"/>
</g>
</g>
</svg>
