<?xml version="1.0" encoding="UTF-8" standalone="no"?>
<!DOCTYPE svg PUBLIC "-//W3C//DTD SVG 1.1//EN"
 "http://www.w3.org/Graphics/SVG/1.1/DTD/svg11.dtd">
<!-- Generated by graphviz version 2.26.3 (20100126.1600)
 -->
<!-- Title: _anonymous_0 Pages: 1 -->
<svg width="413pt" height="236pt"
 viewBox="0.00 0.00 413.00 236.00" xmlns="http://www.w3.org/2000/svg" xmlns:xlink="http://www.w3.org/1999/xlink">
<g id="graph1" class="graph" transform="scale(1 1) rotate(0) translate(4 232)">
<title>_anonymous_0</title>
<polygon fill="white" stroke="white" points="-4,5 -4,-232 410,-232 410,5 -4,5"/>
<g id="graph2" class="cluster"><title>cluster_activity_fb</title>
<polygon fill="none" stroke="black" points="192,-142 192,-220 397,-220 397,-142 192,-142"/>
<text text-anchor="middle" x="294.5" y="-203.4" font-family="Times Roman,serif" font-size="14.00">activity feedback</text>
</g>
<g id="graph3" class="cluster"><title>cluster_action_fb</title>
<polygon fill="none" stroke="black" points="266,-56 266,-134 397,-134 397,-56 266,-56"/>
<text text-anchor="middle" x="331.5" y="-117.4" font-family="Times Roman,serif" font-size="14.00">action feedback</text>
</g>
<!-- node0 -->
<g id="node1" class="node"><title>node0</title>
<ellipse fill="lightgrey" stroke="lightgrey" cx="47" cy="-128" rx="46.1672" ry="46.669"/>
<text text-anchor="middle" x="47" y="-133.4" font-family="Times Roman,serif" font-size="14.00">dominant</text>
<text text-anchor="middle" x="47" y="-115.4" font-family="Times Roman,serif" font-size="14.00">node</text>
</g>
<!-- action_output -->
<g id="node2" class="node"><title>action_output</title>
<polygon fill="none" stroke="black" points="236,-82 209,-100 209,-64 236,-82"/>
</g>
<!-- node0&#45;&gt;action_output -->
<g id="edge11" class="edge"><title>node0&#45;&gt;action_output</title>
<path fill="none" stroke="black" d="M90.4089,-110.958C97.5634,-108.443 104.946,-106.022 112,-104 141.864,-95.4392 177.354,-88.7617 198.755,-85.1044"/>
<polygon fill="black" stroke="black" points="199.523,-88.5248 208.814,-83.4318 198.375,-81.6196 199.523,-88.5248"/>
<text text-anchor="middle" x="147" y="-127.4" font-family="Times Roman,serif" font-size="14.00">learned</text>
<text text-anchor="middle" x="147" y="-109.4" font-family="Times Roman,serif" font-size="14.00">action</text>
</g>
<!-- activity_fb_output -->
<g id="node5" class="node"><title>activity_fb_output</title>
<polygon fill="none" stroke="black" points="236,-168 209,-186 209,-150 236,-168"/>
</g>
<!-- node0&#45;&gt;activity_fb_output -->
<g id="edge9" class="edge"><title>node0&#45;&gt;activity_fb_output</title>
<path fill="none" stroke="black" stroke-dasharray="5,2" d="M92.3759,-138.614C127.197,-146.759 173.5,-157.591 199.05,-163.567"/>
<polygon fill="black" stroke="black" points="198.391,-167.007 208.925,-165.877 199.985,-160.191 198.391,-167.007"/>
<text text-anchor="middle" x="147" y="-200.4" font-family="Times Roman,serif" font-size="14.00">automatic</text>
<text text-anchor="middle" x="147" y="-182.4" font-family="Times Roman,serif" font-size="14.00">feedback</text>
<text text-anchor="middle" x="147" y="-164.4" font-family="Times Roman,serif" font-size="14.00">action</text>
</g>
<!-- action_fb_state -->
<g id="node10" class="node"><title>action_fb_state</title>
<polygon fill="none" stroke="black" points="292,-100 274,-82 292,-64 310,-82 292,-100"/>
</g>
<!-- action_output&#45;&gt;action_fb_state -->
<g id="edge16" class="edge"><title>action_output&#45;&gt;action_fb_state</title>
<path fill="none" stroke="black" stroke-dasharray="5,2" d="M236.292,-82C244.536,-82 254.462,-82 263.638,-82"/>
<polygon fill="black" stroke="black" points="263.918,-85.5001 273.918,-82 263.918,-78.5001 263.918,-85.5001"/>
</g>
<!-- action_state -->
<g id="node12" class="node"><title>action_state</title>
<polygon fill="none" stroke="black" points="292,-44 274,-26 292,-8 310,-26 292,-44"/>
</g>
<!-- action_output&#45;&gt;action_state -->
<g id="edge13" class="edge"><title>action_output&#45;&gt;action_state</title>
<path fill="none" stroke="black" d="M226.489,-75.5761C237.913,-66.9304 258.54,-51.3209 273.605,-39.9206"/>
<polygon fill="black" stroke="black" points="275.858,-42.6046 281.72,-33.7792 271.634,-37.0227 275.858,-42.6046"/>
</g>
<!-- activity_fb_input -->
<g id="node4" class="node"><title>activity_fb_input</title>
<polygon fill="none" stroke="black" points="389,-150 389,-186 353,-186 353,-150 389,-150"/>
</g>
<!-- activity_fb_state -->
<g id="node6" class="node"><title>activity_fb_state</title>
<polygon fill="none" stroke="black" points="292,-186 274,-168 292,-150 310,-168 292,-186"/>
</g>
<!-- activity_fb_output&#45;&gt;activity_fb_state -->
<g id="edge3" class="edge"><title>activity_fb_output&#45;&gt;activity_fb_state</title>
<path fill="none" stroke="black" d="M236.292,-168C244.536,-168 254.462,-168 263.638,-168"/>
<polygon fill="black" stroke="black" points="263.918,-171.5 273.918,-168 263.918,-164.5 263.918,-171.5"/>
</g>
<!-- activity_fb_state&#45;&gt;activity_fb_input -->
<g id="edge4" class="edge"><title>activity_fb_state&#45;&gt;activity_fb_input</title>
<path fill="none" stroke="black" d="M310.323,-168C319.895,-168 331.822,-168 342.563,-168"/>
<polygon fill="black" stroke="black" points="342.777,-171.5 352.777,-168 342.777,-164.5 342.777,-171.5"/>
</g>
<!-- action_fb_input -->
<g id="node9" class="node"><title>action_fb_input</title>
<polygon fill="none" stroke="black" points="389,-100 353,-100 353,-64 389,-64 389,-100"/>
</g>
<!-- action_fb_state&#45;&gt;action_fb_input -->
<g id="edge7" class="edge"><title>action_fb_state&#45;&gt;action_fb_input</title>
<path fill="none" stroke="black" d="M310.323,-82C319.895,-82 331.822,-82 342.563,-82"/>
<polygon fill="black" stroke="black" points="342.777,-85.5001 352.777,-82 342.777,-78.5001 342.777,-85.5001"/>
</g>
<!-- other_effects -->
<g id="node13" class="node"><title>other_effects</title>
<polygon fill="none" stroke="white" points="394,-46 348,-46 348,-2.4869e-14 394,-1.06581e-14 394,-46"/>
<text text-anchor="middle" x="371" y="-19.4" font-family="Times Roman,serif" font-size="14.00">effects</text>
</g>
<!-- action_state&#45;&gt;other_effects -->
<g id="edge14" class="edge"><title>action_state&#45;&gt;other_effects</title>
<path fill="none" stroke="black" d="M309.533,-25.3342C317.812,-25.0198 327.978,-24.6337 337.642,-24.2668"/>
<polygon fill="black" stroke="black" points="337.958,-27.7574 347.818,-23.8803 337.692,-20.7624 337.958,-27.7574"/>
</g>
</g>
</svg>
