<?xml version="1.0" encoding="UTF-8" standalone="no"?>
<!DOCTYPE svg PUBLIC "-//W3C//DTD SVG 1.1//EN"
 "http://www.w3.org/Graphics/SVG/1.1/DTD/svg11.dtd">
<!-- Generated by graphviz version 2.38.0 (20140413.2041)
 -->
<!-- Title: %3 Pages: 1 -->
<svg width="371pt" height="222pt"
 viewBox="0.00 0.00 371.04 221.50" xmlns="http://www.w3.org/2000/svg" xmlns:xlink="http://www.w3.org/1999/xlink">
<g id="graph0" class="graph" transform="scale(1 1) rotate(0) translate(4 217.5)">
<title>%3</title>
<polygon fill="white" stroke="none" points="-4,4 -4,-217.5 367.039,-217.5 367.039,4 -4,4"/>
<g id="clust1" class="cluster"><title>cluster_activity_fb</title>
<polygon fill="none" stroke="black" points="156.539,-130.5 156.539,-205.5 355.039,-205.5 355.039,-130.5 156.539,-130.5"/>
<text text-anchor="middle" x="255.789" y="-190.3" font-family="Times,serif" font-size="14.00">activity feedback</text>
</g>
<g id="clust2" class="cluster"><title>cluster_action_fb</title>
<polygon fill="none" stroke="black" points="229.539,-47.5 229.539,-122.5 355.039,-122.5 355.039,-47.5 229.539,-47.5"/>
<text text-anchor="middle" x="292.289" y="-107.3" font-family="Times,serif" font-size="14.00">action feedback</text>
</g>
<!-- node0 -->
<g id="node1" class="node"><title>node0</title>
<ellipse fill="lightgrey" stroke="lightgrey" cx="36.7696" cy="-118.5" rx="36.5405" ry="36.5405"/>
<text text-anchor="middle" x="36.7696" y="-122.3" font-family="Times,serif" font-size="14.00">dominant</text>
<text text-anchor="middle" x="36.7696" y="-107.3" font-family="Times,serif" font-size="14.00">node</text>
</g>
<!-- action_output -->
<g id="node2" class="node"><title>action_output</title>
<polygon fill="none" stroke="black" points="200.539,-73.5 173.539,-91.5 173.539,-55.5 200.539,-73.5"/>
</g>
<!-- node0&#45;&gt;action_output -->
<g id="edge5" class="edge"><title>node0&#45;&gt;action_output</title>
<path fill="none" stroke="black" d="M71.5135,-106.237C78.1297,-103.929 85.0342,-101.587 91.5391,-99.5 116.163,-91.6002 144.917,-83.4838 163.173,-78.4672"/>
<polygon fill="black" stroke="black" points="164.324,-81.781 173.052,-75.7739 162.483,-75.0275 164.324,-81.781"/>
<text text-anchor="middle" x="119.039" y="-118.3" font-family="Times,serif" font-size="14.00">learned</text>
<text text-anchor="middle" x="119.039" y="-103.3" font-family="Times,serif" font-size="14.00">action</text>
</g>
<!-- activity_fb_output -->
<g id="node4" class="node"><title>activity_fb_output</title>
<polygon fill="none" stroke="black" points="200.539,-156.5 173.539,-174.5 173.539,-138.5 200.539,-156.5"/>
</g>
<!-- node0&#45;&gt;activity_fb_output -->
<g id="edge4" class="edge"><title>node0&#45;&gt;activity_fb_output</title>
<path fill="none" stroke="black" stroke-dasharray="5,2" d="M72.5722,-127.699C101.294,-135.29 140.891,-145.756 163.594,-151.757"/>
<polygon fill="black" stroke="black" points="162.958,-155.209 173.521,-154.381 164.747,-148.441 162.958,-155.209"/>
<text text-anchor="middle" x="119.039" y="-180.3" font-family="Times,serif" font-size="14.00">automatic</text>
<text text-anchor="middle" x="119.039" y="-165.3" font-family="Times,serif" font-size="14.00">feedback</text>
<text text-anchor="middle" x="119.039" y="-150.3" font-family="Times,serif" font-size="14.00">action</text>
</g>
<!-- action_fb_state -->
<g id="node7" class="node"><title>action_fb_state</title>
<polygon fill="none" stroke="black" points="255.539,-91.5 237.539,-73.5 255.539,-55.5 273.539,-73.5 255.539,-91.5"/>
</g>
<!-- action_output&#45;&gt;action_fb_state -->
<g id="edge8" class="edge"><title>action_output&#45;&gt;action_fb_state</title>
<path fill="none" stroke="black" stroke-dasharray="5,2" d="M200.726,-73.5C208.75,-73.5 218.492,-73.5 227.47,-73.5"/>
<polygon fill="black" stroke="black" points="227.51,-77.0001 237.51,-73.5 227.51,-70.0001 227.51,-77.0001"/>
</g>
<!-- action_state -->
<g id="node8" class="node"><title>action_state</title>
<polygon fill="none" stroke="black" points="255.539,-37.5 237.539,-19.5 255.539,-1.5 273.539,-19.5 255.539,-37.5"/>
</g>
<!-- action_output&#45;&gt;action_state -->
<g id="edge6" class="edge"><title>action_output&#45;&gt;action_state</title>
<path fill="none" stroke="black" d="M191.684,-67.3055C202.543,-59.0465 222.067,-44.1973 236.483,-33.2327"/>
<polygon fill="black" stroke="black" points="238.836,-35.8409 244.676,-27.0014 234.598,-30.2693 238.836,-35.8409"/>
</g>
<!-- activity_fb_input -->
<g id="node3" class="node"><title>activity_fb_input</title>
<polygon fill="none" stroke="black" points="347.039,-138.5 311.039,-138.5 311.039,-174.5 347.039,-174.5 347.039,-138.5"/>
</g>
<!-- activity_fb_state -->
<g id="node5" class="node"><title>activity_fb_state</title>
<polygon fill="none" stroke="black" points="255.539,-174.5 237.539,-156.5 255.539,-138.5 273.539,-156.5 255.539,-174.5"/>
</g>
<!-- activity_fb_output&#45;&gt;activity_fb_state -->
<g id="edge1" class="edge"><title>activity_fb_output&#45;&gt;activity_fb_state</title>
<path fill="none" stroke="black" d="M200.726,-156.5C208.75,-156.5 218.492,-156.5 227.47,-156.5"/>
<polygon fill="black" stroke="black" points="227.51,-160 237.51,-156.5 227.51,-153 227.51,-160"/>
</g>
<!-- activity_fb_state&#45;&gt;activity_fb_input -->
<g id="edge2" class="edge"><title>activity_fb_state&#45;&gt;activity_fb_input</title>
<path fill="none" stroke="black" d="M273.847,-156.5C281.927,-156.5 291.738,-156.5 300.779,-156.5"/>
<polygon fill="black" stroke="black" points="300.89,-160 310.89,-156.5 300.89,-153 300.89,-160"/>
</g>
<!-- action_fb_input -->
<g id="node6" class="node"><title>action_fb_input</title>
<polygon fill="none" stroke="black" points="347.039,-91.5 311.039,-91.5 311.039,-55.5 347.039,-55.5 347.039,-91.5"/>
</g>
<!-- action_fb_state&#45;&gt;action_fb_input -->
<g id="edge3" class="edge"><title>action_fb_state&#45;&gt;action_fb_input</title>
<path fill="none" stroke="black" d="M273.847,-73.5C281.927,-73.5 291.738,-73.5 300.779,-73.5"/>
<polygon fill="black" stroke="black" points="300.89,-77.0001 310.89,-73.5 300.89,-70.0001 300.89,-77.0001"/>
</g>
<!-- other_effects -->
<g id="node9" class="node"><title>other_effects</title>
<polygon fill="none" stroke="white" points="347.539,-37 310.539,-37 310.539,-0 347.539,-0 347.539,-37"/>
<text text-anchor="middle" x="329.039" y="-14.8" font-family="Times,serif" font-size="14.00">effects</text>
</g>
<!-- action_state&#45;&gt;other_effects -->
<g id="edge7" class="edge"><title>action_state&#45;&gt;other_effects</title>
<path fill="none" stroke="black" d="M273.484,-19.263C281.498,-19.1509 291.274,-19.0142 300.326,-18.8876"/>
<polygon fill="black" stroke="black" points="300.52,-22.3853 310.47,-18.7457 300.422,-15.386 300.52,-22.3853"/>
</g>
</g>
</svg>
