<?xml version="1.0" encoding="UTF-8" standalone="no"?>
<!DOCTYPE svg PUBLIC "-//W3C//DTD SVG 1.1//EN"
 "http://www.w3.org/Graphics/SVG/1.1/DTD/svg11.dtd">
<!-- Generated by graphviz version 2.38.0 (20140413.2041)
 -->
<!-- Title: %3 Pages: 1 -->
<svg width="129pt" height="152pt"
 viewBox="0.00 0.00 129.40 152.00" xmlns="http://www.w3.org/2000/svg" xmlns:xlink="http://www.w3.org/1999/xlink">
<g id="graph0" class="graph" transform="scale(1 1) rotate(0) translate(4 148)">
<title>%3</title>
<polygon fill="white" stroke="none" points="-4,4 -4,-148 125.396,-148 125.396,4 -4,4"/>
<!-- A1 -->
<g id="node1" class="node"><title>A1</title>
<polygon fill="none" stroke="black" points="36,-144 0,-144 0,-108 36,-108 36,-144"/>
<text text-anchor="middle" x="18" y="-122.3" font-family="Times,serif" font-size="14.00">A</text>
</g>
<!-- A1B -->
<g id="node4" class="node"><title>A1B</title>
<ellipse fill="none" stroke="black" cx="96.6978" cy="-115" rx="22.9987" ry="22.9987"/>
<text text-anchor="middle" x="96.6978" y="-111.3" font-family="Times,serif" font-size="14.00">AB</text>
</g>
<!-- A1&#45;&gt;A1B -->
<g id="edge1" class="edge"><title>A1&#45;&gt;A1B</title>
<path fill="none" stroke="black" d="M36.0217,-123.559C44.2538,-122.378 54.4084,-120.922 63.992,-119.547"/>
<polygon fill="black" stroke="black" points="64.6474,-122.989 74.0492,-118.105 63.6536,-116.06 64.6474,-122.989"/>
</g>
<!-- A2 -->
<g id="node2" class="node"><title>A2</title>
<polygon fill="none" stroke="black" points="36,-36 0,-36 0,-0 36,-0 36,-36"/>
<text text-anchor="middle" x="18" y="-14.3" font-family="Times,serif" font-size="14.00">A&#39;</text>
</g>
<!-- A2B -->
<g id="node5" class="node"><title>A2B</title>
<ellipse fill="none" stroke="black" cx="96.6978" cy="-39" rx="24.8972" ry="24.8972"/>
<text text-anchor="middle" x="96.6978" y="-35.3" font-family="Times,serif" font-size="14.00">A&#39;B</text>
</g>
<!-- A2&#45;&gt;A2B -->
<g id="edge3" class="edge"><title>A2&#45;&gt;A2B</title>
<path fill="none" stroke="black" d="M36.0217,-22.6606C43.9297,-24.8258 53.6118,-27.4768 62.8576,-30.0083"/>
<polygon fill="black" stroke="black" points="62.0451,-33.4146 72.6144,-32.6797 63.8937,-26.6631 62.0451,-33.4146"/>
</g>
<!-- B -->
<g id="node3" class="node"><title>B</title>
<polygon fill="none" stroke="black" points="36,-90 0,-90 0,-54 36,-54 36,-90"/>
<text text-anchor="middle" x="18" y="-68.3" font-family="Times,serif" font-size="14.00">B</text>
</g>
<!-- B&#45;&gt;A1B -->
<g id="edge2" class="edge"><title>B&#45;&gt;A1B</title>
<path fill="none" stroke="black" d="M36.0217,-81.5431C45.3061,-86.7483 57.0359,-93.3245 67.634,-99.2662"/>
<polygon fill="black" stroke="black" points="66.1319,-102.437 76.5662,-104.274 69.5552,-96.3308 66.1319,-102.437"/>
</g>
<!-- B&#45;&gt;A2B -->
<g id="edge4" class="edge"><title>B&#45;&gt;A2B</title>
<path fill="none" stroke="black" d="M36.0217,-64.6762C44.3628,-61.0874 54.6775,-56.6494 64.3722,-52.4781"/>
<polygon fill="black" stroke="black" points="65.9617,-55.6045 73.7642,-48.4371 63.1951,-49.1745 65.9617,-55.6045"/>
</g>
</g>
</svg>
