<?xml version="1.0" encoding="UTF-8" standalone="no"?>
<!DOCTYPE svg PUBLIC "-//W3C//DTD SVG 1.1//EN"
 "http://www.w3.org/Graphics/SVG/1.1/DTD/svg11.dtd">
<!-- Generated by graphviz version 2.26.3 (20100126.1600)
 -->
<!-- Title: _anonymous_0 Pages: 1 -->
<svg width="136pt" height="152pt"
 viewBox="0.00 0.00 136.00 152.00" xmlns="http://www.w3.org/2000/svg" xmlns:xlink="http://www.w3.org/1999/xlink">
<g id="graph1" class="graph" transform="scale(1 1) rotate(0) translate(4 148)">
<title>_anonymous_0</title>
<polygon fill="white" stroke="white" points="-4,5 -4,-148 133,-148 133,5 -4,5"/>
<!-- A1 -->
<g id="node2" class="node"><title>A1</title>
<polygon fill="none" stroke="black" points="36,-144 1.42109e-14,-144 0,-108 36,-108 36,-144"/>
<text text-anchor="middle" x="18" y="-122.4" font-family="Times Roman,serif" font-size="14.00">A</text>
</g>
<!-- A1B -->
<g id="node5" class="node"><title>A1B</title>
<ellipse fill="none" stroke="black" cx="100" cy="-116" rx="24.9567" ry="25.4558"/>
<text text-anchor="middle" x="100" y="-112.4" font-family="Times Roman,serif" font-size="14.00">AB</text>
</g>
<!-- A1&#45;&gt;A1B -->
<g id="edge4" class="edge"><title>A1&#45;&gt;A1B</title>
<path fill="none" stroke="black" d="M36.1985,-123.781C44.4452,-122.775 54.4966,-121.549 64.1595,-120.371"/>
<polygon fill="black" stroke="black" points="64.8857,-123.808 74.3885,-119.123 64.0383,-116.86 64.8857,-123.808"/>
</g>
<!-- A2 -->
<g id="node3" class="node"><title>A2</title>
<polygon fill="none" stroke="black" points="36,-36 1.42109e-14,-36 0,-1.77636e-14 36,-3.55271e-15 36,-36"/>
<text text-anchor="middle" x="18" y="-14.4" font-family="Times Roman,serif" font-size="14.00">A&#39;</text>
</g>
<!-- A2B -->
<g id="node6" class="node"><title>A2B</title>
<ellipse fill="none" stroke="black" cx="100" cy="-37" rx="27.0758" ry="27.5772"/>
<text text-anchor="middle" x="100" y="-33.4" font-family="Times Roman,serif" font-size="14.00">A&#39;B</text>
</g>
<!-- A2&#45;&gt;A2B -->
<g id="edge8" class="edge"><title>A2&#45;&gt;A2B</title>
<path fill="none" stroke="black" d="M36.1985,-22.2167C44.168,-24.0633 53.8229,-26.3004 63.1838,-28.4694"/>
<polygon fill="black" stroke="black" points="62.6004,-31.9269 73.1324,-30.7746 64.1806,-25.1076 62.6004,-31.9269"/>
</g>
<!-- B -->
<g id="node4" class="node"><title>B</title>
<polygon fill="none" stroke="black" points="36,-90 1.42109e-14,-90 0,-54 36,-54 36,-90"/>
<text text-anchor="middle" x="18" y="-68.4" font-family="Times Roman,serif" font-size="14.00">B</text>
</g>
<!-- B&#45;&gt;A1B -->
<g id="edge5" class="edge"><title>B&#45;&gt;A1B</title>
<path fill="none" stroke="black" d="M36.1985,-81.765C45.7088,-86.8682 57.6193,-93.2591 68.5661,-99.133"/>
<polygon fill="black" stroke="black" points="66.9944,-102.262 77.4609,-103.906 70.3042,-96.0936 66.9944,-102.262"/>
</g>
<!-- B&#45;&gt;A2B -->
<g id="edge9" class="edge"><title>B&#45;&gt;A2B</title>
<path fill="none" stroke="black" d="M36.1985,-64.2324C44.7799,-60.5695 55.3155,-56.0727 65.334,-51.7965"/>
<polygon fill="black" stroke="black" points="66.877,-54.9434 74.7002,-47.7987 64.129,-48.5054 66.877,-54.9434"/>
</g>
</g>
</svg>
