<?xml version="1.0" encoding="UTF-8" standalone="no"?>
<!DOCTYPE svg PUBLIC "-//W3C//DTD SVG 1.1//EN"
 "http://www.w3.org/Graphics/SVG/1.1/DTD/svg11.dtd">
<!-- Generated by graphviz version 2.38.0 (20140413.2041)
 -->
<!-- Title: %3 Pages: 1 -->
<svg width="232pt" height="245pt"
 viewBox="0.00 0.00 231.69 244.84" xmlns="http://www.w3.org/2000/svg" xmlns:xlink="http://www.w3.org/1999/xlink">
<g id="graph0" class="graph" transform="scale(1 1) rotate(0) translate(4 240.845)">
<title>%3</title>
<polygon fill="white" stroke="none" points="-4,4 -4,-240.845 227.69,-240.845 227.69,4 -4,4"/>
<!-- A -->
<g id="node1" class="node"><title>A</title>
<polygon fill="none" stroke="black" points="36,-171.748 0,-171.748 0,-135.748 36,-135.748 36,-171.748"/>
<text text-anchor="middle" x="18" y="-150.048" font-family="Times,serif" font-size="14.00">A</text>
</g>
<!-- AB -->
<g id="node5" class="node"><title>AB</title>
<ellipse fill="none" stroke="black" cx="94.748" cy="-85.748" rx="22.9987" ry="22.9987"/>
<text text-anchor="middle" x="94.748" y="-82.048" font-family="Times,serif" font-size="14.00">AB</text>
</g>
<!-- A&#45;&gt;AB -->
<g id="edge1" class="edge"><title>A&#45;&gt;AB</title>
<path fill="none" stroke="black" d="M36.3366,-137.976C46.262,-128.947 58.8642,-117.483 69.7315,-107.596"/>
<polygon fill="black" stroke="black" points="72.233,-110.052 77.2748,-100.734 67.5225,-104.874 72.233,-110.052"/>
</g>
<!-- AC -->
<g id="node7" class="node"><title>AC</title>
<ellipse fill="none" stroke="black" cx="94.748" cy="-211.748" rx="22.9987" ry="22.9987"/>
<text text-anchor="middle" x="94.748" y="-208.048" font-family="Times,serif" font-size="14.00">AC</text>
</g>
<!-- A&#45;&gt;AC -->
<g id="edge5" class="edge"><title>A&#45;&gt;AC</title>
<path fill="none" stroke="black" d="M36.3366,-167.2C45.797,-174.541 57.6894,-183.769 68.1932,-191.919"/>
<polygon fill="black" stroke="black" points="66.2003,-194.803 76.2465,-198.168 70.4916,-189.272 66.2003,-194.803"/>
</g>
<!-- B -->
<g id="node2" class="node"><title>B</title>
<polygon fill="none" stroke="black" points="36,-53.748 0,-53.748 0,-17.748 36,-17.748 36,-53.748"/>
<text text-anchor="middle" x="18" y="-32.048" font-family="Times,serif" font-size="14.00">B</text>
</g>
<!-- B&#45;&gt;AB -->
<g id="edge2" class="edge"><title>B&#45;&gt;AB</title>
<path fill="none" stroke="black" d="M36.3366,-47.3447C45.4095,-53.4137 56.7193,-60.9789 66.8959,-67.7862"/>
<polygon fill="black" stroke="black" points="65.2047,-70.8658 75.4626,-73.5166 69.0967,-65.0475 65.2047,-70.8658"/>
</g>
<!-- BD -->
<g id="node8" class="node"><title>BD</title>
<ellipse fill="none" stroke="black" cx="94.748" cy="-22.748" rx="22.9987" ry="22.9987"/>
<text text-anchor="middle" x="94.748" y="-19.048" font-family="Times,serif" font-size="14.00">BD</text>
</g>
<!-- B&#45;&gt;BD -->
<g id="edge7" class="edge"><title>B&#45;&gt;BD</title>
<path fill="none" stroke="black" d="M36.3366,-32.7328C44.0241,-31.3959 53.3174,-29.7796 62.1666,-28.2405"/>
<polygon fill="black" stroke="black" points="62.9757,-31.6525 72.2281,-26.4907 61.7762,-24.756 62.9757,-31.6525"/>
</g>
<!-- C -->
<g id="node3" class="node"><title>C</title>
<polygon fill="none" stroke="black" points="36,-227.748 0,-227.748 0,-191.748 36,-191.748 36,-227.748"/>
<text text-anchor="middle" x="18" y="-206.048" font-family="Times,serif" font-size="14.00">C</text>
</g>
<!-- CD -->
<g id="node6" class="node"><title>CD</title>
<ellipse fill="none" stroke="black" cx="94.748" cy="-148.748" rx="22.9987" ry="22.9987"/>
<text text-anchor="middle" x="94.748" y="-145.048" font-family="Times,serif" font-size="14.00">CD</text>
</g>
<!-- C&#45;&gt;CD -->
<g id="edge3" class="edge"><title>C&#45;&gt;CD</title>
<path fill="none" stroke="black" d="M36.3366,-195.6C45.9594,-187.747 58.0984,-177.841 68.7329,-169.162"/>
<polygon fill="black" stroke="black" points="70.9708,-171.853 76.5054,-162.819 66.5449,-166.43 70.9708,-171.853"/>
</g>
<!-- C&#45;&gt;AC -->
<g id="edge6" class="edge"><title>C&#45;&gt;AC</title>
<path fill="none" stroke="black" d="M36.3366,-210.212C43.9621,-210.416 53.1676,-210.662 61.9524,-210.897"/>
<polygon fill="black" stroke="black" points="61.8619,-214.396 71.952,-211.165 62.0492,-207.398 61.8619,-214.396"/>
</g>
<!-- D -->
<g id="node4" class="node"><title>D</title>
<polygon fill="none" stroke="black" points="36,-114.748 0,-114.748 0,-78.748 36,-78.748 36,-114.748"/>
<text text-anchor="middle" x="18" y="-93.048" font-family="Times,serif" font-size="14.00">D</text>
</g>
<!-- D&#45;&gt;CD -->
<g id="edge4" class="edge"><title>D&#45;&gt;CD</title>
<path fill="none" stroke="black" d="M36.3366,-108.809C45.5686,-115.231 57.1164,-123.264 67.43,-130.439"/>
<polygon fill="black" stroke="black" points="65.5173,-133.372 75.7251,-136.21 69.5148,-127.626 65.5173,-133.372"/>
</g>
<!-- D&#45;&gt;BD -->
<g id="edge8" class="edge"><title>D&#45;&gt;BD</title>
<path fill="none" stroke="black" d="M36.3366,-79.5849C46.5686,-69.4553 59.6454,-56.5093 70.7335,-45.5322"/>
<polygon fill="black" stroke="black" points="73.3886,-47.8287 78.0328,-38.3059 68.4638,-42.8541 73.3886,-47.8287"/>
</g>
<!-- ABCD -->
<g id="node9" class="node"><title>ABCD</title>
<ellipse fill="none" stroke="black" cx="188.593" cy="-104.748" rx="35.194" ry="35.194"/>
<text text-anchor="middle" x="188.593" y="-101.048" font-family="Times,serif" font-size="14.00">ABCD</text>
</g>
<!-- AB&#45;&gt;ABCD -->
<g id="edge9" class="edge"><title>AB&#45;&gt;ABCD</title>
<path fill="none" stroke="black" d="M117.514,-90.2507C125.539,-91.9108 134.94,-93.8556 144.203,-95.7718"/>
<polygon fill="black" stroke="black" points="143.626,-99.2267 154.128,-97.8251 145.045,-92.3718 143.626,-99.2267"/>
</g>
<!-- CD&#45;&gt;ABCD -->
<g id="edge10" class="edge"><title>CD&#45;&gt;ABCD</title>
<path fill="none" stroke="black" d="M115.677,-139.201C124.992,-134.738 136.435,-129.256 147.43,-123.989"/>
<polygon fill="black" stroke="black" points="148.998,-127.119 156.504,-119.641 145.974,-120.806 148.998,-127.119"/>
</g>
<!-- ACBD -->
<g id="node10" class="node"><title>ACBD</title>
<ellipse fill="none" stroke="black" cx="188.593" cy="-201.748" rx="35.194" ry="35.194"/>
<text text-anchor="middle" x="188.593" y="-198.048" font-family="Times,serif" font-size="14.00">ACBD</text>
</g>
<!-- AC&#45;&gt;ACBD -->
<g id="edge11" class="edge"><title>AC&#45;&gt;ACBD</title>
<path fill="none" stroke="black" d="M117.514,-209.378C125.299,-208.53 134.38,-207.542 143.373,-206.563"/>
<polygon fill="black" stroke="black" points="143.853,-210.031 153.416,-205.469 143.096,-203.072 143.853,-210.031"/>
</g>
<!-- BD&#45;&gt;ACBD -->
<g id="edge12" class="edge"><title>BD&#45;&gt;ACBD</title>
<path fill="none" stroke="black" d="M109.416,-40.6247C112.291,-44.8064 115.158,-49.3324 117.496,-53.748 138.626,-93.6509 133.17,-108.43 153.496,-148.748 156.146,-154.005 159.189,-159.394 162.342,-164.627"/>
<polygon fill="black" stroke="black" points="159.446,-166.597 167.703,-173.236 165.388,-162.897 159.446,-166.597"/>
</g>
</g>
</svg>
