<?xml version="1.0" encoding="UTF-8" standalone="no"?>
<!DOCTYPE svg PUBLIC "-//W3C//DTD SVG 1.1//EN"
 "http://www.w3.org/Graphics/SVG/1.1/DTD/svg11.dtd">
<!-- Generated by graphviz version 2.26.3 (20100126.1600)
 -->
<!-- Title: _anonymous_0 Pages: 1 -->
<svg width="252pt" height="274pt"
 viewBox="0.00 0.00 252.00 274.00" xmlns="http://www.w3.org/2000/svg" xmlns:xlink="http://www.w3.org/1999/xlink">
<g id="graph1" class="graph" transform="scale(1 1) rotate(0) translate(4 270)">
<title>_anonymous_0</title>
<polygon fill="white" stroke="white" points="-4,5 -4,-270 249,-270 249,5 -4,5"/>
<!-- A -->
<g id="node2" class="node"><title>A</title>
<polygon fill="none" stroke="black" points="36,-195 1.42109e-14,-195 0,-159 36,-159 36,-195"/>
<text text-anchor="middle" x="18" y="-173.4" font-family="Times Roman,serif" font-size="14.00">A</text>
</g>
<!-- AB -->
<g id="node8" class="node"><title>AB</title>
<ellipse fill="none" stroke="black" cx="99" cy="-97" rx="24.9567" ry="25.4558"/>
<text text-anchor="middle" x="99" y="-93.4" font-family="Times Roman,serif" font-size="14.00">AB</text>
</g>
<!-- A&#45;&gt;AB -->
<g id="edge4" class="edge"><title>A&#45;&gt;AB</title>
<path fill="none" stroke="black" d="M36.3802,-158.847C47.4352,-147.928 61.6622,-133.877 73.7609,-121.928"/>
<polygon fill="black" stroke="black" points="76.3162,-124.323 80.9716,-114.806 71.3973,-119.343 76.3162,-124.323"/>
</g>
<!-- AC -->
<g id="node14" class="node"><title>AC</title>
<ellipse fill="none" stroke="black" cx="99" cy="-237" rx="24.9567" ry="25.4558"/>
<text text-anchor="middle" x="99" y="-233.4" font-family="Times Roman,serif" font-size="14.00">AC</text>
</g>
<!-- A&#45;&gt;AC -->
<g id="edge12" class="edge"><title>A&#45;&gt;AC</title>
<path fill="none" stroke="black" d="M36.3802,-190.615C46.3485,-197.999 58.8959,-207.293 70.1364,-215.62"/>
<polygon fill="black" stroke="black" points="68.2941,-218.611 78.413,-221.75 72.4607,-212.986 68.2941,-218.611"/>
</g>
<!-- B -->
<g id="node3" class="node"><title>B</title>
<polygon fill="none" stroke="black" points="36,-69 1.42109e-14,-69 0,-33 36,-33 36,-69"/>
<text text-anchor="middle" x="18" y="-47.4" font-family="Times Roman,serif" font-size="14.00">B</text>
</g>
<!-- B&#45;&gt;AB -->
<g id="edge5" class="edge"><title>B&#45;&gt;AB</title>
<path fill="none" stroke="black" d="M36.3802,-61.4381C45.6221,-66.6866 57.0809,-73.1941 67.6597,-79.2018"/>
<polygon fill="black" stroke="black" points="66.2279,-82.4137 76.652,-84.3085 69.6848,-76.3268 66.2279,-82.4137"/>
</g>
<!-- BD -->
<g id="node17" class="node"><title>BD</title>
<ellipse fill="none" stroke="black" cx="99" cy="-27" rx="26.8701" ry="26.8701"/>
<text text-anchor="middle" x="99" y="-23.4" font-family="Times Roman,serif" font-size="14.00">BD</text>
</g>
<!-- B&#45;&gt;BD -->
<g id="edge16" class="edge"><title>B&#45;&gt;BD</title>
<path fill="none" stroke="black" d="M36.3802,-45.554C44.3327,-43.1977 53.9266,-40.3551 63.1889,-37.6107"/>
<polygon fill="black" stroke="black" points="64.4223,-40.8957 73.0159,-34.699 62.4336,-34.1841 64.4223,-40.8957"/>
</g>
<!-- C -->
<g id="node4" class="node"><title>C</title>
<polygon fill="none" stroke="black" points="36,-252 1.42109e-14,-252 0,-216 36,-216 36,-252"/>
<text text-anchor="middle" x="18" y="-230.4" font-family="Times Roman,serif" font-size="14.00">C</text>
</g>
<!-- CD -->
<g id="node11" class="node"><title>CD</title>
<ellipse fill="none" stroke="black" cx="99" cy="-167" rx="26.8701" ry="26.8701"/>
<text text-anchor="middle" x="99" y="-163.4" font-family="Times Roman,serif" font-size="14.00">CD</text>
</g>
<!-- C&#45;&gt;CD -->
<g id="edge8" class="edge"><title>C&#45;&gt;CD</title>
<path fill="none" stroke="black" d="M36.3802,-218.797C46.3711,-210.533 58.9528,-200.125 70.2128,-190.812"/>
<polygon fill="black" stroke="black" points="72.6476,-193.34 78.1224,-184.269 68.186,-187.946 72.6476,-193.34"/>
</g>
<!-- C&#45;&gt;AC -->
<g id="edge13" class="edge"><title>C&#45;&gt;AC</title>
<path fill="none" stroke="black" d="M36.3802,-234.681C44.3159,-234.975 53.8861,-235.329 63.1303,-235.671"/>
<polygon fill="black" stroke="black" points="63.2014,-239.176 73.3242,-236.049 63.4606,-232.181 63.2014,-239.176"/>
</g>
<!-- D -->
<g id="node5" class="node"><title>D</title>
<polygon fill="none" stroke="black" points="36,-135 1.42109e-14,-135 0,-99 36,-99 36,-135"/>
<text text-anchor="middle" x="18" y="-113.4" font-family="Times Roman,serif" font-size="14.00">D</text>
</g>
<!-- D&#45;&gt;CD -->
<g id="edge9" class="edge"><title>D&#45;&gt;CD</title>
<path fill="none" stroke="black" d="M36.3802,-128.346C45.4967,-133.973 56.7702,-140.932 67.2285,-147.388"/>
<polygon fill="black" stroke="black" points="65.4086,-150.378 75.7564,-152.652 69.0855,-144.421 65.4086,-150.378"/>
</g>
<!-- D&#45;&gt;BD -->
<g id="edge17" class="edge"><title>D&#45;&gt;BD</title>
<path fill="none" stroke="black" d="M34.3916,-98.7872C45.7028,-86.2191 60.9588,-69.268 73.8057,-54.9937"/>
<polygon fill="black" stroke="black" points="76.5665,-57.1581 80.6546,-47.3837 71.3634,-52.4753 76.5665,-57.1581"/>
</g>
<!-- ABCD -->
<g id="node20" class="node"><title>ABCD</title>
<ellipse fill="none" stroke="black" cx="203" cy="-118" rx="39.8075" ry="40.3051"/>
<text text-anchor="middle" x="203" y="-114.4" font-family="Times Roman,serif" font-size="14.00">ABCD</text>
</g>
<!-- AB&#45;&gt;ABCD -->
<g id="edge20" class="edge"><title>AB&#45;&gt;ABCD</title>
<path fill="none" stroke="black" d="M124.175,-102.084C132.922,-103.85 143.063,-105.897 153.1,-107.924"/>
<polygon fill="black" stroke="black" points="152.552,-111.384 163.047,-109.932 153.937,-104.522 152.552,-111.384"/>
</g>
<!-- CD&#45;&gt;ABCD -->
<g id="edge21" class="edge"><title>CD&#45;&gt;ABCD</title>
<path fill="none" stroke="black" d="M123.647,-155.388C133.695,-150.654 145.648,-145.022 157.188,-139.584"/>
<polygon fill="black" stroke="black" points="158.756,-142.715 166.311,-135.286 155.773,-136.382 158.756,-142.715"/>
</g>
<!-- ACBD -->
<g id="node23" class="node"><title>ACBD</title>
<ellipse fill="none" stroke="black" cx="203" cy="-226" rx="39.8075" ry="40.3051"/>
<text text-anchor="middle" x="203" y="-222.4" font-family="Times Roman,serif" font-size="14.00">ACBD</text>
</g>
<!-- AC&#45;&gt;ACBD -->
<g id="edge24" class="edge"><title>AC&#45;&gt;ACBD</title>
<path fill="none" stroke="black" d="M124.441,-234.309C132.921,-233.412 142.689,-232.379 152.393,-231.353"/>
<polygon fill="black" stroke="black" points="152.848,-234.824 162.424,-230.292 152.112,-227.863 152.848,-234.824"/>
</g>
<!-- BD&#45;&gt;ACBD -->
<g id="edge25" class="edge"><title>BD&#45;&gt;ACBD</title>
<path fill="none" stroke="black" d="M116.423,-47.9736C119.887,-52.7327 123.287,-57.8946 126,-63 148.95,-106.195 139.836,-123.397 162,-167 165.114,-173.126 168.787,-179.348 172.633,-185.341"/>
<polygon fill="black" stroke="black" points="169.891,-187.537 178.348,-193.919 175.716,-183.656 169.891,-187.537"/>
</g>
</g>
</svg>
