<?xml version="1.0" encoding="UTF-8" standalone="no"?>
<!DOCTYPE svg PUBLIC "-//W3C//DTD SVG 1.1//EN"
 "http://www.w3.org/Graphics/SVG/1.1/DTD/svg11.dtd">
<!-- Generated by graphviz version 2.38.0 (20140413.2041)
 -->
<!-- Title: %3 Pages: 1 -->
<svg width="260pt" height="388pt"
 viewBox="0.00 0.00 260.00 388.00" xmlns="http://www.w3.org/2000/svg" xmlns:xlink="http://www.w3.org/1999/xlink">
<g id="graph0" class="graph" transform="scale(1 1) rotate(0) translate(4 384)">
<title>%3</title>
<polygon fill="white" stroke="none" points="-4,4 -4,-384 256,-384 256,4 -4,4"/>
<!-- A -->
<g id="node1" class="node"><title>A</title>
<polygon fill="none" stroke="black" points="108,-334 72,-334 72,-298 108,-298 108,-334"/>
</g>
<!-- AB -->
<g id="node9" class="node"><title>AB</title>
<ellipse fill="none" stroke="black" cx="162" cy="-326" rx="18" ry="18"/>
</g>
<!-- A&#45;&gt;AB -->
<g id="edge5" class="edge"><title>A&#45;&gt;AB</title>
<path fill="none" stroke="black" d="M108.303,-318.472C116.017,-319.574 125.288,-320.898 133.888,-322.127"/>
<polygon fill="black" stroke="black" points="133.501,-325.607 143.896,-323.557 134.491,-318.677 133.501,-325.607"/>
</g>
<!-- AC -->
<g id="node10" class="node"><title>AC</title>
<ellipse fill="none" stroke="black" cx="162" cy="-234" rx="18" ry="18"/>
</g>
<!-- A&#45;&gt;AC -->
<g id="edge7" class="edge"><title>A&#45;&gt;AC</title>
<path fill="none" stroke="black" d="M106.535,-297.802C117.342,-285.142 131.78,-268.229 143.075,-254.998"/>
<polygon fill="black" stroke="black" points="145.811,-257.184 149.641,-247.306 140.487,-252.639 145.811,-257.184"/>
</g>
<!-- AD -->
<g id="node11" class="node"><title>AD</title>
<ellipse fill="none" stroke="black" cx="162" cy="-126" rx="18" ry="18"/>
</g>
<!-- A&#45;&gt;AD -->
<g id="edge9" class="edge"><title>A&#45;&gt;AD</title>
<path fill="none" stroke="black" d="M100.243,-297.937C102.944,-292.278 105.768,-285.954 108,-280 128.596,-225.066 120.127,-206.592 144,-153 144.533,-151.805 145.112,-150.6 145.724,-149.398"/>
<polygon fill="black" stroke="black" points="148.926,-150.849 150.854,-140.431 142.85,-147.373 148.926,-150.849"/>
</g>
<!-- ABA -->
<g id="node15" class="node"><title>ABA</title>
<ellipse fill="none" stroke="black" cx="234" cy="-362" rx="18" ry="18"/>
</g>
<!-- A&#45;&gt;ABA -->
<g id="edge17" class="edge"><title>A&#45;&gt;ABA</title>
<path fill="none" stroke="black" d="M108.336,-331.508C118.111,-339.33 130.953,-348.162 144,-353 163.748,-360.323 187.551,-362.413 205.569,-362.759"/>
<polygon fill="black" stroke="black" points="205.685,-366.26 215.694,-362.785 205.703,-359.26 205.685,-366.26"/>
</g>
<!-- B -->
<g id="node2" class="node"><title>B</title>
<polygon fill="none" stroke="black" points="108,-271 72,-271 72,-235 108,-235 108,-271"/>
</g>
<!-- B&#45;&gt;AB -->
<g id="edge6" class="edge"><title>B&#45;&gt;AB</title>
<path fill="none" stroke="black" d="M108.303,-271.045C118.468,-281.645 131.335,-295.064 141.81,-305.987"/>
<polygon fill="black" stroke="black" points="139.494,-308.629 148.942,-313.425 144.547,-303.785 139.494,-308.629"/>
</g>
<!-- BC -->
<g id="node12" class="node"><title>BC</title>
<ellipse fill="none" stroke="black" cx="162" cy="-180" rx="18" ry="18"/>
</g>
<!-- B&#45;&gt;BC -->
<g id="edge11" class="edge"><title>B&#45;&gt;BC</title>
<path fill="none" stroke="black" d="M108.303,-234.955C118.468,-224.355 131.335,-210.936 141.81,-200.013"/>
<polygon fill="black" stroke="black" points="144.547,-202.215 148.942,-192.575 139.494,-197.371 144.547,-202.215"/>
</g>
<!-- BD -->
<g id="node13" class="node"><title>BD</title>
<ellipse fill="none" stroke="black" cx="162" cy="-72" rx="18" ry="18"/>
</g>
<!-- B&#45;&gt;BD -->
<g id="edge13" class="edge"><title>B&#45;&gt;BD</title>
<path fill="none" stroke="black" d="M97.9192,-234.694C101.06,-226.281 104.783,-216.157 108,-207 124.772,-159.264 122.365,-144.738 144,-99 144.56,-97.817 145.161,-96.6224 145.791,-95.4285"/>
<polygon fill="black" stroke="black" points="148.986,-96.8954 150.984,-86.4906 142.934,-93.3785 148.986,-96.8954"/>
</g>
<!-- BAB -->
<g id="node16" class="node"><title>BAB</title>
<ellipse fill="none" stroke="black" cx="234" cy="-289" rx="18" ry="18"/>
</g>
<!-- B&#45;&gt;BAB -->
<g id="edge19" class="edge"><title>B&#45;&gt;BAB</title>
<path fill="none" stroke="black" d="M108.129,-257.342C132.568,-263.538 177.666,-274.972 206.452,-282.27"/>
<polygon fill="black" stroke="black" points="205.698,-285.689 216.252,-284.754 207.418,-278.904 205.698,-285.689"/>
</g>
<!-- C -->
<g id="node3" class="node"><title>C</title>
<polygon fill="none" stroke="black" points="108,-198 72,-198 72,-162 108,-162 108,-198"/>
</g>
<!-- C&#45;&gt;AC -->
<g id="edge8" class="edge"><title>C&#45;&gt;AC</title>
<path fill="none" stroke="black" d="M108.303,-193.348C117.572,-200.499 129.088,-209.382 138.988,-217.02"/>
<polygon fill="black" stroke="black" points="137.12,-219.999 147.175,-223.335 141.395,-214.456 137.12,-219.999"/>
</g>
<!-- C&#45;&gt;BC -->
<g id="edge12" class="edge"><title>C&#45;&gt;BC</title>
<path fill="none" stroke="black" d="M108.303,-180C116.017,-180 125.288,-180 133.888,-180"/>
<polygon fill="black" stroke="black" points="133.896,-183.5 143.896,-180 133.896,-176.5 133.896,-183.5"/>
</g>
<!-- CD -->
<g id="node14" class="node"><title>CD</title>
<ellipse fill="none" stroke="black" cx="162" cy="-18" rx="18" ry="18"/>
</g>
<!-- C&#45;&gt;CD -->
<g id="edge15" class="edge"><title>C&#45;&gt;CD</title>
<path fill="none" stroke="black" d="M96.982,-161.624C105.857,-135.2 123.668,-85.2238 144,-45 144.59,-43.8321 145.217,-42.6498 145.867,-41.4657"/>
<polygon fill="black" stroke="black" points="149.054,-42.9521 151.132,-32.5631 143.029,-39.3885 149.054,-42.9521"/>
</g>
<!-- D -->
<g id="node4" class="node"><title>D</title>
<polygon fill="none" stroke="black" points="108,-90 72,-90 72,-54 108,-54 108,-90"/>
</g>
<!-- D&#45;&gt;AD -->
<g id="edge10" class="edge"><title>D&#45;&gt;AD</title>
<path fill="none" stroke="black" d="M108.303,-85.3483C117.572,-92.4986 129.088,-101.382 138.988,-109.02"/>
<polygon fill="black" stroke="black" points="137.12,-111.999 147.175,-115.335 141.395,-106.456 137.12,-111.999"/>
</g>
<!-- D&#45;&gt;BD -->
<g id="edge14" class="edge"><title>D&#45;&gt;BD</title>
<path fill="none" stroke="black" d="M108.303,-72C116.017,-72 125.288,-72 133.888,-72"/>
<polygon fill="black" stroke="black" points="133.896,-75.5001 143.896,-72 133.896,-68.5001 133.896,-75.5001"/>
</g>
<!-- D&#45;&gt;CD -->
<g id="edge16" class="edge"><title>D&#45;&gt;CD</title>
<path fill="none" stroke="black" d="M108.303,-58.6517C117.572,-51.5014 129.088,-42.6178 138.988,-34.9805"/>
<polygon fill="black" stroke="black" points="141.395,-37.5439 147.175,-28.6646 137.12,-32.0015 141.395,-37.5439"/>
</g>
<!-- A0 -->
<!-- A0&#45;&gt;A -->
<g id="edge1" class="edge"><title>A0&#45;&gt;A</title>
<path fill="none" stroke="black" stroke-dasharray="5,2" d="M36.3034,-316C44.0173,-316 53.2875,-316 61.8876,-316"/>
<polygon fill="black" stroke="black" points="61.8957,-319.5 71.8957,-316 61.8956,-312.5 61.8957,-319.5"/>
</g>
<!-- B0 -->
<!-- B0&#45;&gt;B -->
<g id="edge2" class="edge"><title>B0&#45;&gt;B</title>
<path fill="none" stroke="black" stroke-dasharray="5,2" d="M36.3034,-253C44.0173,-253 53.2875,-253 61.8876,-253"/>
<polygon fill="black" stroke="black" points="61.8957,-256.5 71.8957,-253 61.8956,-249.5 61.8957,-256.5"/>
</g>
<!-- C0 -->
<!-- C0&#45;&gt;C -->
<g id="edge3" class="edge"><title>C0&#45;&gt;C</title>
<path fill="none" stroke="black" stroke-dasharray="5,2" d="M36.3034,-180C44.0173,-180 53.2875,-180 61.8876,-180"/>
<polygon fill="black" stroke="black" points="61.8957,-183.5 71.8957,-180 61.8956,-176.5 61.8957,-183.5"/>
</g>
<!-- D0 -->
<!-- D0&#45;&gt;D -->
<g id="edge4" class="edge"><title>D0&#45;&gt;D</title>
<path fill="none" stroke="black" stroke-dasharray="5,2" d="M36.3034,-72C44.0173,-72 53.2875,-72 61.8876,-72"/>
<polygon fill="black" stroke="black" points="61.8957,-75.5001 71.8957,-72 61.8956,-68.5001 61.8957,-75.5001"/>
</g>
<!-- AB&#45;&gt;ABA -->
<g id="edge18" class="edge"><title>AB&#45;&gt;ABA</title>
<path fill="none" stroke="black" d="M178.535,-333.99C187.326,-338.511 198.519,-344.267 208.469,-349.384"/>
<polygon fill="black" stroke="black" points="207.015,-352.572 217.508,-354.033 210.216,-346.347 207.015,-352.572"/>
</g>
<!-- AB&#45;&gt;BAB -->
<g id="edge20" class="edge"><title>AB&#45;&gt;BAB</title>
<path fill="none" stroke="black" d="M178.189,-317.972C187.178,-313.22 198.768,-307.094 208.972,-301.7"/>
<polygon fill="black" stroke="black" points="210.635,-304.78 217.841,-297.013 207.364,-298.592 210.635,-304.78"/>
</g>
<!-- ACBD -->
<g id="node17" class="node"><title>ACBD</title>
<ellipse fill="none" stroke="black" cx="234" cy="-158" rx="18" ry="18"/>
</g>
<!-- AC&#45;&gt;ACBD -->
<g id="edge21" class="edge"><title>AC&#45;&gt;ACBD</title>
<path fill="none" stroke="black" d="M174.875,-221.108C185.635,-209.425 201.673,-192.012 214.179,-178.434"/>
<polygon fill="black" stroke="black" points="216.867,-180.682 221.067,-170.956 211.718,-175.94 216.867,-180.682"/>
</g>
<!-- BD&#45;&gt;ACBD -->
<g id="edge22" class="edge"><title>BD&#45;&gt;ACBD</title>
<path fill="none" stroke="black" d="M174.247,-85.8174C185.334,-99.4385 202.441,-120.457 215.342,-136.306"/>
<polygon fill="black" stroke="black" points="212.985,-138.954 222.012,-144.5 218.414,-134.535 212.985,-138.954"/>
</g>
</g>
</svg>
