<?xml version="1.0" encoding="UTF-8" standalone="no"?>
<!DOCTYPE svg PUBLIC "-//W3C//DTD SVG 1.1//EN"
 "http://www.w3.org/Graphics/SVG/1.1/DTD/svg11.dtd">
<!-- Generated by graphviz version 2.26.3 (20100126.1600)
 -->
<!-- Title: _anonymous_0 Pages: 1 -->
<svg width="188pt" height="152pt"
 viewBox="0.00 0.00 188.00 152.00" xmlns="http://www.w3.org/2000/svg" xmlns:xlink="http://www.w3.org/1999/xlink">
<g id="graph1" class="graph" transform="scale(1 1) rotate(0) translate(4 148)">
<title>_anonymous_0</title>
<polygon fill="white" stroke="white" points="-4,5 -4,-148 185,-148 185,5 -4,5"/>
<!-- A -->
<g id="node1" class="node"><title>A</title>
<polygon fill="none" stroke="black" points="108,-36 72,-36 72,-1.77636e-14 108,-3.55271e-15 108,-36"/>
</g>
<!-- AB -->
<g id="node11" class="node"><title>AB</title>
<ellipse fill="none" stroke="black" cx="162" cy="-45" rx="18" ry="18"/>
</g>
<!-- A&#45;&gt;AB -->
<g id="edge9" class="edge"><title>A&#45;&gt;AB</title>
<path fill="none" stroke="black" d="M108.169,-24.8132C116.49,-27.9338 126.512,-31.692 135.641,-35.1154"/>
<polygon fill="black" stroke="black" points="134.481,-38.4185 145.074,-38.6526 136.939,-31.8642 134.481,-38.4185"/>
</g>
<!-- A0 -->
<!-- A0&#45;&gt;A -->
<g id="edge2" class="edge"><title>A0&#45;&gt;A</title>
<path fill="none" stroke="black" stroke-dasharray="5,2" d="M36.1686,-18C43.869,-18 53.0257,-18 61.5834,-18"/>
<polygon fill="black" stroke="black" points="61.5868,-21.5001 71.5867,-18 61.5867,-14.5001 61.5868,-21.5001"/>
</g>
<!-- B0 -->
<!-- B -->
<g id="node7" class="node"><title>B</title>
<ellipse fill="none" stroke="black" cx="90" cy="-72" rx="18" ry="18"/>
</g>
<!-- B0&#45;&gt;B -->
<g id="edge4" class="edge"><title>B0&#45;&gt;B</title>
<path fill="none" stroke="black" d="M32.5703,-115.072C42.5246,-107.607 55.9158,-97.5632 67.2632,-89.0526"/>
<polygon fill="black" stroke="black" points="69.5514,-91.7115 75.4514,-82.9115 65.3514,-86.1115 69.5514,-91.7115"/>
</g>
<!-- B1 -->
<!-- B1&#45;&gt;B -->
<g id="edge6" class="edge"><title>B1&#45;&gt;B</title>
<path fill="none" stroke="black" d="M36.1686,-72C43.869,-72 53.0257,-72 61.5834,-72"/>
<polygon fill="black" stroke="black" points="61.5868,-75.5001 71.5867,-72 61.5867,-68.5001 61.5868,-75.5001"/>
</g>
<!-- B&#45;&gt;AB -->
<g id="edge10" class="edge"><title>B&#45;&gt;AB</title>
<path fill="none" stroke="black" d="M107.063,-65.6014C115.581,-62.407 126.077,-58.471 135.605,-54.8982"/>
<polygon fill="black" stroke="black" points="136.925,-58.1411 145.059,-51.3527 134.467,-51.5868 136.925,-58.1411"/>
</g>
</g>
</svg>
