<?xml version="1.0" encoding="UTF-8" standalone="no"?>
<!DOCTYPE svg PUBLIC "-//W3C//DTD SVG 1.1//EN"
 "http://www.w3.org/Graphics/SVG/1.1/DTD/svg11.dtd">
<!-- Generated by graphviz version 2.38.0 (20140413.2041)
 -->
<!-- Title: %3 Pages: 1 -->
<svg width="260pt" height="266pt"
 viewBox="0.00 0.00 260.00 266.00" xmlns="http://www.w3.org/2000/svg" xmlns:xlink="http://www.w3.org/1999/xlink">
<g id="graph0" class="graph" transform="scale(1 1) rotate(0) translate(4 262)">
<title>%3</title>
<polygon fill="white" stroke="none" points="-4,4 -4,-262 256,-262 256,4 -4,4"/>
<!-- A -->
<g id="node1" class="node"><title>A</title>
<polygon fill="none" stroke="black" points="108,-36 72,-36 72,-0 108,-0 108,-36"/>
</g>
<!-- AB -->
<g id="node9" class="node"><title>AB</title>
<ellipse fill="none" stroke="black" cx="162" cy="-55" rx="18" ry="18"/>
</g>
<!-- A&#45;&gt;AB -->
<g id="edge5" class="edge"><title>A&#45;&gt;AB</title>
<path fill="none" stroke="black" d="M108.303,-27.1461C116.927,-31.7043 127.496,-37.2905 136.898,-42.2606"/>
<polygon fill="black" stroke="black" points="135.321,-45.3856 145.798,-46.9644 138.592,-39.197 135.321,-45.3856"/>
</g>
<!-- Ax -->
<!-- A&#45;&gt;Ax -->
<!-- B -->
<g id="node2" class="node"><title>B</title>
<polygon fill="none" stroke="black" points="108,-110 72,-110 72,-74 108,-74 108,-110"/>
</g>
<!-- B&#45;&gt;AB -->
<g id="edge6" class="edge"><title>B&#45;&gt;AB</title>
<path fill="none" stroke="black" d="M108.303,-82.8539C116.927,-78.2957 127.496,-72.7095 136.898,-67.7394"/>
<polygon fill="black" stroke="black" points="138.592,-70.803 145.798,-63.0356 135.321,-64.6144 138.592,-70.803"/>
</g>
<!-- Bx -->
<!-- B&#45;&gt;Bx -->
<!-- C -->
<g id="node3" class="node"><title>C</title>
<polygon fill="none" stroke="black" points="108,-258 72,-258 72,-222 108,-222 108,-258"/>
</g>
<!-- CD -->
<g id="node10" class="node"><title>CD</title>
<ellipse fill="none" stroke="black" cx="162" cy="-203" rx="18" ry="18"/>
</g>
<!-- C&#45;&gt;CD -->
<g id="edge7" class="edge"><title>C&#45;&gt;CD</title>
<path fill="none" stroke="black" d="M108.303,-230.854C116.927,-226.296 127.496,-220.709 136.898,-215.739"/>
<polygon fill="black" stroke="black" points="138.592,-218.803 145.798,-211.036 135.321,-212.614 138.592,-218.803"/>
</g>
<!-- Cx -->
<!-- C&#45;&gt;Cx -->
<!-- D -->
<g id="node4" class="node"><title>D</title>
<polygon fill="none" stroke="black" points="108,-184 72,-184 72,-148 108,-148 108,-184"/>
</g>
<!-- D&#45;&gt;CD -->
<g id="edge8" class="edge"><title>D&#45;&gt;CD</title>
<path fill="none" stroke="black" d="M108.303,-175.146C116.927,-179.704 127.496,-185.291 136.898,-190.261"/>
<polygon fill="black" stroke="black" points="135.321,-193.386 145.798,-194.964 138.592,-187.197 135.321,-193.386"/>
</g>
<!-- Dx -->
<!-- D&#45;&gt;Dx -->
<!-- A0 -->
<!-- A0&#45;&gt;A -->
<g id="edge1" class="edge"><title>A0&#45;&gt;A</title>
<path fill="none" stroke="black" stroke-dasharray="5,2" d="M36.3034,-18C44.0173,-18 53.2875,-18 61.8876,-18"/>
<polygon fill="black" stroke="black" points="61.8957,-21.5001 71.8957,-18 61.8956,-14.5001 61.8957,-21.5001"/>
</g>
<!-- B0 -->
<!-- B0&#45;&gt;B -->
<g id="edge2" class="edge"><title>B0&#45;&gt;B</title>
<path fill="none" stroke="black" stroke-dasharray="5,2" d="M36.3034,-92C44.0173,-92 53.2875,-92 61.8876,-92"/>
<polygon fill="black" stroke="black" points="61.8957,-95.5001 71.8957,-92 61.8956,-88.5001 61.8957,-95.5001"/>
</g>
<!-- C0 -->
<!-- C0&#45;&gt;C -->
<g id="edge3" class="edge"><title>C0&#45;&gt;C</title>
<path fill="none" stroke="black" stroke-dasharray="5,2" d="M36.3034,-240C44.0173,-240 53.2875,-240 61.8876,-240"/>
<polygon fill="black" stroke="black" points="61.8957,-243.5 71.8957,-240 61.8956,-236.5 61.8957,-243.5"/>
</g>
<!-- D0 -->
<!-- D0&#45;&gt;D -->
<g id="edge4" class="edge"><title>D0&#45;&gt;D</title>
<path fill="none" stroke="black" stroke-dasharray="5,2" d="M36.3034,-166C44.0173,-166 53.2875,-166 61.8876,-166"/>
<polygon fill="black" stroke="black" points="61.8957,-169.5 71.8957,-166 61.8956,-162.5 61.8957,-169.5"/>
</g>
<!-- ABCD -->
<g id="node11" class="node"><title>ABCD</title>
<ellipse fill="none" stroke="black" cx="234" cy="-129" rx="18" ry="18"/>
</g>
<!-- AB&#45;&gt;ABCD -->
<g id="edge9" class="edge"><title>AB&#45;&gt;ABCD</title>
<path fill="none" stroke="black" d="M175.193,-67.8898C185.833,-79.1376 201.453,-95.6505 213.775,-108.676"/>
<polygon fill="black" stroke="black" points="211.532,-111.398 220.947,-116.258 216.617,-106.588 211.532,-111.398"/>
</g>
<!-- CD&#45;&gt;ABCD -->
<g id="edge10" class="edge"><title>CD&#45;&gt;ABCD</title>
<path fill="none" stroke="black" d="M175.193,-190.11C185.833,-178.862 201.453,-162.35 213.775,-149.324"/>
<polygon fill="black" stroke="black" points="216.617,-151.412 220.947,-141.742 211.532,-146.602 216.617,-151.412"/>
</g>
<!-- A_B -->
<!-- A_B&#45;&gt;AB -->
<!-- C_D -->
<!-- C_D&#45;&gt;CD -->
<!-- AB_CD -->
<!-- AB_CD&#45;&gt;ABCD -->
</g>
</svg>
