<?xml version="1.0" encoding="UTF-8" standalone="no"?>
<!DOCTYPE svg PUBLIC "-//W3C//DTD SVG 1.1//EN"
 "http://www.w3.org/Graphics/SVG/1.1/DTD/svg11.dtd">
<!-- Generated by graphviz version 2.26.3 (20100126.1600)
 -->
<!-- Title: _anonymous_0 Pages: 1 -->
<svg width="260pt" height="388pt"
 viewBox="0.00 0.00 260.00 388.00" xmlns="http://www.w3.org/2000/svg" xmlns:xlink="http://www.w3.org/1999/xlink">
<g id="graph1" class="graph" transform="scale(1 1) rotate(0) translate(4 384)">
<title>_anonymous_0</title>
<polygon fill="white" stroke="white" points="-4,5 -4,-384 257,-384 257,5 -4,5"/>
<!-- A -->
<g id="node2" class="node"><title>A</title>
<polygon fill="none" stroke="black" points="108,-334 72,-334 72,-298 108,-298 108,-334"/>
</g>
<!-- AB -->
<g id="node18" class="node"><title>AB</title>
<ellipse fill="none" stroke="black" cx="162" cy="-326" rx="18" ry="18"/>
</g>
<!-- A&#45;&gt;AB -->
<g id="edge14" class="edge"><title>A&#45;&gt;AB</title>
<path fill="none" stroke="black" d="M108.169,-318.523C115.988,-319.609 125.308,-320.904 133.978,-322.108"/>
<polygon fill="black" stroke="black" points="133.7,-325.603 144.087,-323.512 134.663,-318.67 133.7,-325.603"/>
</g>
<!-- AC -->
<g id="node21" class="node"><title>AC</title>
<ellipse fill="none" stroke="black" cx="162" cy="-234" rx="18" ry="18"/>
</g>
<!-- A&#45;&gt;AC -->
<g id="edge18" class="edge"><title>A&#45;&gt;AC</title>
<path fill="none" stroke="black" d="M105.979,-297.802C117.027,-285.22 131.762,-268.438 143.348,-255.243"/>
<polygon fill="black" stroke="black" points="146.125,-257.384 150.093,-247.561 140.865,-252.766 146.125,-257.384"/>
</g>
<!-- AD -->
<g id="node24" class="node"><title>AD</title>
<ellipse fill="none" stroke="black" cx="162" cy="-126" rx="18" ry="18"/>
</g>
<!-- A&#45;&gt;AD -->
<g id="edge22" class="edge"><title>A&#45;&gt;AD</title>
<path fill="none" stroke="black" d="M99.8351,-297.986C102.697,-292.329 105.676,-285.994 108,-280 129.212,-225.3 119.43,-206.276 144,-153 144.544,-151.82 145.136,-150.634 145.763,-149.452"/>
<polygon fill="black" stroke="black" points="148.9,-151.027 151.039,-140.65 142.896,-147.428 148.9,-151.027"/>
</g>
<!-- ABA -->
<g id="node36" class="node"><title>ABA</title>
<ellipse fill="none" stroke="black" cx="234" cy="-362" rx="18" ry="18"/>
</g>
<!-- A&#45;&gt;ABA -->
<g id="edge38" class="edge"><title>A&#45;&gt;ABA</title>
<path fill="none" stroke="black" d="M108.192,-331.89C118.102,-339.617 130.977,-348.243 144,-353 163.758,-360.217 187.482,-362.345 205.611,-362.734"/>
<polygon fill="black" stroke="black" points="205.81,-366.235 215.828,-362.785 205.845,-359.235 205.81,-366.235"/>
</g>
<!-- B -->
<g id="node3" class="node"><title>B</title>
<polygon fill="none" stroke="black" points="108,-271 72,-271 72,-235 108,-235 108,-271"/>
</g>
<!-- B&#45;&gt;AB -->
<g id="edge15" class="edge"><title>B&#45;&gt;AB</title>
<path fill="none" stroke="black" d="M107.798,-271.045C118.119,-281.509 131.148,-294.72 141.846,-305.566"/>
<polygon fill="black" stroke="black" points="139.637,-308.311 149.151,-312.973 144.621,-303.395 139.637,-308.311"/>
</g>
<!-- BC -->
<g id="node27" class="node"><title>BC</title>
<ellipse fill="none" stroke="black" cx="162" cy="-180" rx="18" ry="18"/>
</g>
<!-- B&#45;&gt;BC -->
<g id="edge26" class="edge"><title>B&#45;&gt;BC</title>
<path fill="none" stroke="black" d="M107.798,-234.955C118.119,-224.491 131.148,-211.28 141.846,-200.434"/>
<polygon fill="black" stroke="black" points="144.621,-202.605 149.151,-193.027 139.637,-197.689 144.621,-202.605"/>
</g>
<!-- BD -->
<g id="node30" class="node"><title>BD</title>
<ellipse fill="none" stroke="black" cx="162" cy="-72" rx="18" ry="18"/>
</g>
<!-- B&#45;&gt;BD -->
<g id="edge30" class="edge"><title>B&#45;&gt;BD</title>
<path fill="none" stroke="black" d="M97.3987,-234.727C100.738,-226.32 104.672,-216.192 108,-207 125.224,-159.426 121.77,-144.452 144,-99 144.571,-97.8328 145.185,-96.6569 145.83,-95.4831"/>
<polygon fill="black" stroke="black" points="148.959,-97.0741 151.17,-86.7126 142.98,-93.4335 148.959,-97.0741"/>
</g>
<!-- BAB -->
<g id="node39" class="node"><title>BAB</title>
<ellipse fill="none" stroke="black" cx="234" cy="-289" rx="18" ry="18"/>
</g>
<!-- B&#45;&gt;BAB -->
<g id="edge42" class="edge"><title>B&#45;&gt;BAB</title>
<path fill="none" stroke="black" d="M108.238,-257.559C133.042,-263.76 177.624,-274.906 206.499,-282.125"/>
<polygon fill="black" stroke="black" points="205.81,-285.56 216.361,-284.59 207.508,-278.769 205.81,-285.56"/>
</g>
<!-- C -->
<g id="node4" class="node"><title>C</title>
<polygon fill="none" stroke="black" points="108,-198 72,-198 72,-162 108,-162 108,-198"/>
</g>
<!-- C&#45;&gt;AC -->
<g id="edge19" class="edge"><title>C&#45;&gt;AC</title>
<path fill="none" stroke="black" d="M108.169,-193.626C117.577,-200.683 129.159,-209.369 139.167,-216.875"/>
<polygon fill="black" stroke="black" points="137.362,-219.897 147.462,-223.097 141.562,-214.297 137.362,-219.897"/>
</g>
<!-- C&#45;&gt;BC -->
<g id="edge27" class="edge"><title>C&#45;&gt;BC</title>
<path fill="none" stroke="black" d="M108.169,-180C115.869,-180 125.026,-180 133.583,-180"/>
<polygon fill="black" stroke="black" points="133.587,-183.5 143.587,-180 133.587,-176.5 133.587,-183.5"/>
</g>
<!-- CD -->
<g id="node33" class="node"><title>CD</title>
<ellipse fill="none" stroke="black" cx="162" cy="-18" rx="18" ry="18"/>
</g>
<!-- C&#45;&gt;CD -->
<g id="edge34" class="edge"><title>C&#45;&gt;CD</title>
<path fill="none" stroke="black" d="M96.0079,-161.561C104.945,-135.059 122.964,-84.9896 144,-45 144.605,-43.8501 145.247,-42.6883 145.914,-41.526"/>
<polygon fill="black" stroke="black" points="149.033,-43.1388 151.338,-32.7978 143.087,-39.4442 149.033,-43.1388"/>
</g>
<!-- D -->
<g id="node5" class="node"><title>D</title>
<polygon fill="none" stroke="black" points="108,-90 72,-90 72,-54 108,-54 108,-90"/>
</g>
<!-- D&#45;&gt;AD -->
<g id="edge23" class="edge"><title>D&#45;&gt;AD</title>
<path fill="none" stroke="black" d="M108.169,-85.6265C117.577,-92.6828 129.159,-101.369 139.167,-108.875"/>
<polygon fill="black" stroke="black" points="137.362,-111.897 147.462,-115.097 141.562,-106.297 137.362,-111.897"/>
</g>
<!-- D&#45;&gt;BD -->
<g id="edge31" class="edge"><title>D&#45;&gt;BD</title>
<path fill="none" stroke="black" d="M108.169,-72C115.869,-72 125.026,-72 133.583,-72"/>
<polygon fill="black" stroke="black" points="133.587,-75.5001 143.587,-72 133.587,-68.5001 133.587,-75.5001"/>
</g>
<!-- D&#45;&gt;CD -->
<g id="edge35" class="edge"><title>D&#45;&gt;CD</title>
<path fill="none" stroke="black" d="M108.169,-58.3735C117.577,-51.3172 129.159,-42.6305 139.167,-35.1247"/>
<polygon fill="black" stroke="black" points="141.562,-37.7034 147.462,-28.9033 137.362,-32.1034 141.562,-37.7034"/>
</g>
<!-- A0 -->
<!-- A0&#45;&gt;A -->
<g id="edge5" class="edge"><title>A0&#45;&gt;A</title>
<path fill="none" stroke="black" stroke-dasharray="5,2" d="M36.1686,-316C43.869,-316 53.0257,-316 61.5834,-316"/>
<polygon fill="black" stroke="black" points="61.5868,-319.5 71.5867,-316 61.5867,-312.5 61.5868,-319.5"/>
</g>
<!-- B0 -->
<!-- B0&#45;&gt;B -->
<g id="edge7" class="edge"><title>B0&#45;&gt;B</title>
<path fill="none" stroke="black" stroke-dasharray="5,2" d="M36.1686,-253C43.869,-253 53.0257,-253 61.5834,-253"/>
<polygon fill="black" stroke="black" points="61.5868,-256.5 71.5867,-253 61.5867,-249.5 61.5868,-256.5"/>
</g>
<!-- C0 -->
<!-- C0&#45;&gt;C -->
<g id="edge9" class="edge"><title>C0&#45;&gt;C</title>
<path fill="none" stroke="black" stroke-dasharray="5,2" d="M36.1686,-180C43.869,-180 53.0257,-180 61.5834,-180"/>
<polygon fill="black" stroke="black" points="61.5868,-183.5 71.5867,-180 61.5867,-176.5 61.5868,-183.5"/>
</g>
<!-- D0 -->
<!-- D0&#45;&gt;D -->
<g id="edge11" class="edge"><title>D0&#45;&gt;D</title>
<path fill="none" stroke="black" stroke-dasharray="5,2" d="M36.1686,-72C43.869,-72 53.0257,-72 61.5834,-72"/>
<polygon fill="black" stroke="black" points="61.5868,-75.5001 71.5867,-72 61.5867,-68.5001 61.5868,-75.5001"/>
</g>
<!-- AB&#45;&gt;ABA -->
<g id="edge39" class="edge"><title>AB&#45;&gt;ABA</title>
<path fill="none" stroke="black" d="M178.338,-334.169C187.267,-338.634 198.525,-344.263 208.576,-349.288"/>
<polygon fill="black" stroke="black" points="207.217,-352.522 217.727,-353.863 210.348,-346.261 207.217,-352.522"/>
</g>
<!-- AB&#45;&gt;BAB -->
<g id="edge43" class="edge"><title>AB&#45;&gt;BAB</title>
<path fill="none" stroke="black" d="M178.338,-317.604C187.267,-313.015 198.525,-307.23 208.576,-302.065"/>
<polygon fill="black" stroke="black" points="210.432,-305.046 217.727,-297.363 207.233,-298.82 210.432,-305.046"/>
</g>
<!-- ACBD -->
<g id="node42" class="node"><title>ACBD</title>
<ellipse fill="none" stroke="black" cx="234" cy="-158" rx="18" ry="18"/>
</g>
<!-- AC&#45;&gt;ACBD -->
<g id="edge46" class="edge"><title>AC&#45;&gt;ACBD</title>
<path fill="none" stroke="black" d="M174.541,-220.762C185.588,-209.101 201.855,-191.93 214.583,-178.495"/>
<polygon fill="black" stroke="black" points="217.266,-180.753 221.602,-171.086 212.184,-175.939 217.266,-180.753"/>
</g>
<!-- BD&#45;&gt;ACBD -->
<g id="edge47" class="edge"><title>BD&#45;&gt;ACBD</title>
<path fill="none" stroke="black" d="M173.568,-85.8174C184.942,-99.4029 202.476,-120.347 215.734,-136.182"/>
<polygon fill="black" stroke="black" points="213.118,-138.51 222.221,-143.931 218.486,-134.017 213.118,-138.51"/>
</g>
</g>
</svg>
