<?xml version="1.0" encoding="UTF-8" standalone="no"?>
<!DOCTYPE svg PUBLIC "-//W3C//DTD SVG 1.1//EN"
 "http://www.w3.org/Graphics/SVG/1.1/DTD/svg11.dtd">
<!-- Generated by graphviz version 2.26.3 (20100126.1600)
 -->
<!-- Title: _anonymous_0 Pages: 1 -->
<svg width="260pt" height="266pt"
 viewBox="0.00 0.00 260.00 266.00" xmlns="http://www.w3.org/2000/svg" xmlns:xlink="http://www.w3.org/1999/xlink">
<g id="graph1" class="graph" transform="scale(1 1) rotate(0) translate(4 262)">
<title>_anonymous_0</title>
<polygon fill="white" stroke="white" points="-4,5 -4,-262 257,-262 257,5 -4,5"/>
<!-- A -->
<g id="node1" class="node"><title>A</title>
<polygon fill="none" stroke="black" points="108,-36 72,-36 72,-1.77636e-14 108,-3.55271e-15 108,-36"/>
</g>
<!-- AB -->
<g id="node15" class="node"><title>AB</title>
<ellipse fill="none" stroke="black" cx="162" cy="-55" rx="18" ry="18"/>
</g>
<!-- A&#45;&gt;AB -->
<g id="edge11" class="edge"><title>A&#45;&gt;AB</title>
<path fill="none" stroke="black" d="M108.169,-27.3367C116.792,-31.7681 127.242,-37.1381 136.631,-41.9633"/>
<polygon fill="black" stroke="black" points="135.067,-45.0943 145.561,-46.552 138.266,-38.8683 135.067,-45.0943"/>
</g>
<!-- Ax -->
<!-- A&#45;&gt;Ax -->
<!-- B -->
<g id="node2" class="node"><title>B</title>
<polygon fill="none" stroke="black" points="108,-110 72,-110 72,-74 108,-74 108,-110"/>
</g>
<!-- B&#45;&gt;AB -->
<g id="edge12" class="edge"><title>B&#45;&gt;AB</title>
<path fill="none" stroke="black" d="M108.169,-82.6633C116.792,-78.2319 127.242,-72.8619 136.631,-68.0367"/>
<polygon fill="black" stroke="black" points="138.266,-71.1317 145.561,-63.448 135.067,-64.9057 138.266,-71.1317"/>
</g>
<!-- Bx -->
<!-- B&#45;&gt;Bx -->
<!-- C -->
<g id="node3" class="node"><title>C</title>
<polygon fill="none" stroke="black" points="108,-258 72,-258 72,-222 108,-222 108,-258"/>
</g>
<!-- CD -->
<g id="node18" class="node"><title>CD</title>
<ellipse fill="none" stroke="black" cx="162" cy="-203" rx="18" ry="18"/>
</g>
<!-- C&#45;&gt;CD -->
<g id="edge15" class="edge"><title>C&#45;&gt;CD</title>
<path fill="none" stroke="black" d="M108.169,-230.663C116.792,-226.232 127.242,-220.862 136.631,-216.037"/>
<polygon fill="black" stroke="black" points="138.266,-219.132 145.561,-211.448 135.067,-212.906 138.266,-219.132"/>
</g>
<!-- Cx -->
<!-- C&#45;&gt;Cx -->
<!-- D -->
<g id="node4" class="node"><title>D</title>
<polygon fill="none" stroke="black" points="108,-184 72,-184 72,-148 108,-148 108,-184"/>
</g>
<!-- D&#45;&gt;CD -->
<g id="edge16" class="edge"><title>D&#45;&gt;CD</title>
<path fill="none" stroke="black" d="M108.169,-175.337C116.792,-179.768 127.242,-185.138 136.631,-189.963"/>
<polygon fill="black" stroke="black" points="135.067,-193.094 145.561,-194.552 138.266,-186.868 135.067,-193.094"/>
</g>
<!-- Dx -->
<!-- D&#45;&gt;Dx -->
<!-- A0 -->
<!-- A0&#45;&gt;A -->
<g id="edge2" class="edge"><title>A0&#45;&gt;A</title>
<path fill="none" stroke="black" stroke-dasharray="5,2" d="M36.1686,-18C43.869,-18 53.0257,-18 61.5834,-18"/>
<polygon fill="black" stroke="black" points="61.5868,-21.5001 71.5867,-18 61.5867,-14.5001 61.5868,-21.5001"/>
</g>
<!-- B0 -->
<!-- B0&#45;&gt;B -->
<g id="edge4" class="edge"><title>B0&#45;&gt;B</title>
<path fill="none" stroke="black" stroke-dasharray="5,2" d="M36.1686,-92C43.869,-92 53.0257,-92 61.5834,-92"/>
<polygon fill="black" stroke="black" points="61.5868,-95.5001 71.5867,-92 61.5867,-88.5001 61.5868,-95.5001"/>
</g>
<!-- C0 -->
<!-- C0&#45;&gt;C -->
<g id="edge6" class="edge"><title>C0&#45;&gt;C</title>
<path fill="none" stroke="black" stroke-dasharray="5,2" d="M36.1686,-240C43.869,-240 53.0257,-240 61.5834,-240"/>
<polygon fill="black" stroke="black" points="61.5868,-243.5 71.5867,-240 61.5867,-236.5 61.5868,-243.5"/>
</g>
<!-- D0 -->
<!-- D0&#45;&gt;D -->
<g id="edge8" class="edge"><title>D0&#45;&gt;D</title>
<path fill="none" stroke="black" stroke-dasharray="5,2" d="M36.1686,-166C43.869,-166 53.0257,-166 61.5834,-166"/>
<polygon fill="black" stroke="black" points="61.5868,-169.5 71.5867,-166 61.5867,-162.5 61.5868,-169.5"/>
</g>
<!-- ABCD -->
<g id="node21" class="node"><title>ABCD</title>
<ellipse fill="none" stroke="black" cx="234" cy="-129" rx="18" ry="18"/>
</g>
<!-- AB&#45;&gt;ABCD -->
<g id="edge19" class="edge"><title>AB&#45;&gt;ABCD</title>
<path fill="none" stroke="black" d="M174.872,-68.2297C185.725,-79.3841 201.441,-95.5367 213.943,-108.386"/>
<polygon fill="black" stroke="black" points="211.757,-111.158 221.239,-115.885 216.774,-106.277 211.757,-111.158"/>
</g>
<!-- CD&#45;&gt;ABCD -->
<g id="edge20" class="edge"><title>CD&#45;&gt;ABCD</title>
<path fill="none" stroke="black" d="M174.872,-189.77C185.725,-178.616 201.441,-162.463 213.943,-149.614"/>
<polygon fill="black" stroke="black" points="216.774,-151.723 221.239,-142.115 211.757,-146.842 216.774,-151.723"/>
</g>
<!-- A_B -->
<!-- A_B&#45;&gt;AB -->
<!-- C_D -->
<!-- C_D&#45;&gt;CD -->
<!-- AB_CD -->
<!-- AB_CD&#45;&gt;ABCD -->
</g>
</svg>
