<?xml version="1.0" encoding="UTF-8" standalone="no"?>
<!DOCTYPE svg PUBLIC "-//W3C//DTD SVG 1.1//EN"
 "http://www.w3.org/Graphics/SVG/1.1/DTD/svg11.dtd">
<!-- Generated by graphviz version 2.38.0 (20140413.2041)
 -->
<!-- Title: %3 Pages: 1 -->
<svg width="188pt" height="152pt"
 viewBox="0.00 0.00 188.00 152.00" xmlns="http://www.w3.org/2000/svg" xmlns:xlink="http://www.w3.org/1999/xlink">
<g id="graph0" class="graph" transform="scale(1 1) rotate(0) translate(4 148)">
<title>%3</title>
<polygon fill="white" stroke="none" points="-4,4 -4,-148 184,-148 184,4 -4,4"/>
<!-- A -->
<g id="node1" class="node"><title>A</title>
<polygon fill="none" stroke="black" points="108,-36 72,-36 72,-0 108,-0 108,-36"/>
</g>
<!-- AB -->
<g id="node6" class="node"><title>AB</title>
<ellipse fill="none" stroke="black" cx="162" cy="-45" rx="18" ry="18"/>
</g>
<!-- A&#45;&gt;AB -->
<g id="edge4" class="edge"><title>A&#45;&gt;AB</title>
<path fill="none" stroke="black" d="M108.303,-24.6742C116.509,-27.8394 126.477,-31.6839 135.525,-35.1739"/>
<polygon fill="black" stroke="black" points="134.266,-38.4395 144.855,-38.7728 136.785,-31.9085 134.266,-38.4395"/>
</g>
<!-- A0 -->
<!-- A0&#45;&gt;A -->
<g id="edge1" class="edge"><title>A0&#45;&gt;A</title>
<path fill="none" stroke="black" stroke-dasharray="5,2" d="M36.3034,-18C44.0173,-18 53.2875,-18 61.8876,-18"/>
<polygon fill="black" stroke="black" points="61.8957,-21.5001 71.8957,-18 61.8956,-14.5001 61.8957,-21.5001"/>
</g>
<!-- B0 -->
<!-- B -->
<g id="node5" class="node"><title>B</title>
<ellipse fill="none" stroke="black" cx="90" cy="-72" rx="18" ry="18"/>
</g>
<!-- B0&#45;&gt;B -->
<g id="edge2" class="edge"><title>B0&#45;&gt;B</title>
<path fill="none" stroke="black" d="M32.8297,-115.331C42.609,-107.787 55.9201,-97.5188 67.1298,-88.8713"/>
<polygon fill="black" stroke="black" points="69.419,-91.5258 75.199,-82.6465 65.1433,-85.9833 69.419,-91.5258"/>
</g>
<!-- B1 -->
<!-- B1&#45;&gt;B -->
<g id="edge3" class="edge"><title>B1&#45;&gt;B</title>
<path fill="none" stroke="black" d="M36.3034,-72C44.0173,-72 53.2875,-72 61.8876,-72"/>
<polygon fill="black" stroke="black" points="61.8957,-75.5001 71.8957,-72 61.8956,-68.5001 61.8957,-75.5001"/>
</g>
<!-- B&#45;&gt;AB -->
<g id="edge5" class="edge"><title>B&#45;&gt;AB</title>
<path fill="none" stroke="black" d="M107.235,-65.7378C115.629,-62.5004 126.066,-58.4747 135.505,-54.8339"/>
<polygon fill="black" stroke="black" points="136.782,-58.0925 144.853,-51.2282 134.263,-51.5615 136.782,-58.0925"/>
</g>
</g>
</svg>
