<?xml version="1.0" encoding="UTF-8" standalone="no"?>
<!DOCTYPE svg PUBLIC "-//W3C//DTD SVG 1.1//EN"
 "http://www.w3.org/Graphics/SVG/1.1/DTD/svg11.dtd">
<!-- Generated by graphviz version 2.38.0 (20140413.2041)
 -->
<!-- Title: %3 Pages: 1 -->
<svg width="324pt" height="135pt"
 viewBox="0.00 0.00 324.00 135.00" xmlns="http://www.w3.org/2000/svg" xmlns:xlink="http://www.w3.org/1999/xlink">
<g id="graph0" class="graph" transform="scale(1 1) rotate(0) translate(4 131)">
<title>%3</title>
<polygon fill="white" stroke="none" points="-4,4 -4,-131 320,-131 320,4 -4,4"/>
<g id="clust1" class="cluster"><title>cluster_reminiscence</title>
<polygon fill="none" stroke="black" points="8,-8 8,-83 308,-83 308,-8 8,-8"/>
<text text-anchor="middle" x="158" y="-67.8" font-family="Times,serif" font-size="14.00">automatic reminiscence module</text>
</g>
<!-- node0 -->
<g id="node1" class="node"><title>node0</title>
<ellipse fill="none" stroke="black" cx="34" cy="-109" rx="18" ry="18"/>
</g>
<!-- state -->
<g id="node3" class="node"><title>state</title>
<polygon fill="none" stroke="black" points="209,-52 191,-34 209,-16 227,-34 209,-52"/>
</g>
<!-- node0&#45;&gt;state -->
<g id="edge3" class="edge"><title>node0&#45;&gt;state</title>
<path fill="none" stroke="black" stroke-dasharray="5,2" d="M51.4002,-103.026C77.5133,-93.3625 129.985,-73.325 173,-53 178.028,-50.624 183.352,-47.8653 188.29,-45.199"/>
<polygon fill="black" stroke="black" points="190.071,-48.2132 197.128,-40.3105 186.683,-42.0878 190.071,-48.2132"/>
<text text-anchor="middle" x="121.5" y="-98.8" font-family="Times,serif" font-size="14.00">natural activation</text>
</g>
<!-- output -->
<g id="node2" class="node"><title>output</title>
<polygon fill="none" stroke="black" points="52,-34 25,-52 25,-16 52,-34"/>
</g>
<!-- output&#45;&gt;state -->
<g id="edge1" class="edge"><title>output&#45;&gt;state</title>
<path fill="none" stroke="black" d="M52.2204,-34C82.2722,-34 144.52,-34 180.568,-34"/>
<polygon fill="black" stroke="black" points="180.849,-37.5001 190.849,-34 180.849,-30.5001 180.849,-37.5001"/>
<text text-anchor="middle" x="121.5" y="-37.8" font-family="Times,serif" font-size="14.00">artificial activation</text>
</g>
<!-- input -->
<g id="node4" class="node"><title>input</title>
<polygon fill="none" stroke="black" points="300,-52 264,-52 264,-16 300,-16 300,-52"/>
</g>
<!-- state&#45;&gt;input -->
<g id="edge2" class="edge"><title>state&#45;&gt;input</title>
<path fill="none" stroke="black" d="M227.187,-34C235.211,-34 244.953,-34 253.931,-34"/>
<polygon fill="black" stroke="black" points="253.971,-37.5001 263.971,-34 253.971,-30.5001 253.971,-37.5001"/>
</g>
</g>
</svg>
