<?xml version="1.0" encoding="UTF-8" standalone="no"?>
<!DOCTYPE svg PUBLIC "-//W3C//DTD SVG 1.1//EN"
 "http://www.w3.org/Graphics/SVG/1.1/DTD/svg11.dtd">
<!-- Generated by graphviz version 2.26.3 (20100126.1600)
 -->
<!-- Title: _anonymous_0 Pages: 1 -->
<svg width="350pt" height="138pt"
 viewBox="0.00 0.00 350.00 138.00" xmlns="http://www.w3.org/2000/svg" xmlns:xlink="http://www.w3.org/1999/xlink">
<g id="graph1" class="graph" transform="scale(1 1) rotate(0) translate(4 134)">
<title>_anonymous_0</title>
<polygon fill="white" stroke="white" points="-4,5 -4,-134 347,-134 347,5 -4,5"/>
<g id="graph2" class="cluster"><title>cluster_reminiscence</title>
<polygon fill="none" stroke="black" points="8,-8 8,-86 334,-86 334,-8 8,-8"/>
<text text-anchor="middle" x="171" y="-69.4" font-family="Times Roman,serif" font-size="14.00">automatic reminiscence module</text>
</g>
<!-- node0 -->
<g id="node1" class="node"><title>node0</title>
<ellipse fill="none" stroke="black" cx="34" cy="-112" rx="18" ry="18"/>
</g>
<!-- state -->
<g id="node4" class="node"><title>state</title>
<polygon fill="none" stroke="black" points="234,-52 216,-34 234,-16 252,-34 234,-52"/>
</g>
<!-- node0&#45;&gt;state -->
<g id="edge7" class="edge"><title>node0&#45;&gt;state</title>
<path fill="none" stroke="black" stroke-dasharray="5,2" d="M51.0519,-105.35C87.1152,-91.2851 171.113,-58.5258 211.512,-42.7705"/>
<polygon fill="black" stroke="black" points="212.965,-45.9604 221.01,-39.0661 210.422,-39.4389 212.965,-45.9604"/>
<text text-anchor="middle" x="134" y="-102.4" font-family="Times Roman,serif" font-size="14.00">natural activation</text>
</g>
<!-- output -->
<g id="node3" class="node"><title>output</title>
<polygon fill="none" stroke="black" points="52,-34 25,-52 25,-16 52,-34"/>
</g>
<!-- output&#45;&gt;state -->
<g id="edge3" class="edge"><title>output&#45;&gt;state</title>
<path fill="none" stroke="black" d="M46.8827,-30.4195C53.6957,-28.7092 62.2356,-26.8523 70,-26 126.549,-19.7925 141.451,-19.7925 198,-26 201.854,-26.4231 205.9,-27.0937 209.83,-27.8711"/>
<polygon fill="black" stroke="black" points="209.234,-31.324 219.755,-30.0815 210.755,-24.4913 209.234,-31.324"/>
<text text-anchor="middle" x="134" y="-31.4" font-family="Times Roman,serif" font-size="14.00">artificial activation</text>
</g>
<!-- input -->
<g id="node5" class="node"><title>input</title>
<polygon fill="none" stroke="black" points="326,-52 290,-52 290,-16 326,-16 326,-52"/>
</g>
<!-- state&#45;&gt;input -->
<g id="edge5" class="edge"><title>state&#45;&gt;input</title>
<path fill="none" stroke="black" d="M252.292,-34C260.536,-34 270.462,-34 279.638,-34"/>
<polygon fill="black" stroke="black" points="279.918,-37.5001 289.918,-34 279.918,-30.5001 279.918,-37.5001"/>
</g>
</g>
</svg>
