<?xml version="1.0" encoding="UTF-8" standalone="no"?>
<!DOCTYPE svg PUBLIC "-//W3C//DTD SVG 1.1//EN"
 "http://www.w3.org/Graphics/SVG/1.1/DTD/svg11.dtd">
<!-- Generated by graphviz version 2.38.0 (20140413.2041)
 -->
<!-- Title: %3 Pages: 1 -->
<svg width="291pt" height="102pt"
 viewBox="0.00 0.00 290.75 101.75" xmlns="http://www.w3.org/2000/svg" xmlns:xlink="http://www.w3.org/1999/xlink">
<g id="graph0" class="graph" transform="scale(1 1) rotate(0) translate(4 97.754)">
<title>%3</title>
<polygon fill="white" stroke="none" points="-4,4 -4,-97.754 286.754,-97.754 286.754,4 -4,4"/>
<!-- input0 -->
<g id="node1" class="node"><title>input0</title>
<polygon fill="none" stroke="black" points="282.754,-91.877 246.754,-91.877 246.754,-55.877 282.754,-55.877 282.754,-91.877"/>
</g>
<!-- input1 -->
<g id="node2" class="node"><title>input1</title>
<polygon fill="none" stroke="black" points="282.754,-37.877 246.754,-37.877 246.754,-1.87702 282.754,-1.87702 282.754,-37.877"/>
</g>
<!-- state -->
<g id="node3" class="node"><title>state</title>
<polygon fill="none" stroke="black" points="144.877,-93.6314 98.1227,-46.877 144.877,-0.122658 191.631,-46.877 144.877,-93.6314"/>
<text text-anchor="middle" x="144.877" y="-43.177" font-family="Times,serif" font-size="14.00">{0, 1}</text>
</g>
<!-- state&#45;&gt;input0 -->
<g id="edge3" class="edge"><title>state&#45;&gt;input0</title>
<path fill="none" stroke="black" d="M183.174,-55.42C200.492,-59.3867 220.704,-64.0164 236.553,-67.6467"/>
<polygon fill="black" stroke="black" points="236.211,-71.1587 246.74,-69.9798 237.774,-64.3354 236.211,-71.1587"/>
<text text-anchor="middle" x="219.254" y="-68.677" font-family="Times,serif" font-size="14.00">if 0</text>
</g>
<!-- state&#45;&gt;input1 -->
<g id="edge4" class="edge"><title>state&#45;&gt;input1</title>
<path fill="none" stroke="black" d="M183.174,-38.3341C200.492,-34.3674 220.704,-29.7377 236.553,-26.1074"/>
<polygon fill="black" stroke="black" points="237.774,-29.4186 246.74,-23.7742 236.211,-22.5953 237.774,-29.4186"/>
<text text-anchor="middle" x="219.254" y="-34.677" font-family="Times,serif" font-size="14.00">if 1</text>
</g>
<!-- output0 -->
<g id="node4" class="node"><title>output0</title>
<polygon fill="none" stroke="black" points="36,-73.877 9,-91.877 9,-55.877 36,-73.877"/>
</g>
<!-- output0&#45;&gt;state -->
<g id="edge1" class="edge"><title>output0&#45;&gt;state</title>
<path fill="none" stroke="black" d="M31.8937,-71.0892C47.0387,-67.8147 73.0377,-62.1934 96.1739,-57.191"/>
<polygon fill="black" stroke="black" points="97.1782,-60.5549 106.213,-55.0205 95.6988,-53.713 97.1782,-60.5549"/>
<text text-anchor="middle" x="67" y="-69.677" font-family="Times,serif" font-size="14.00">set 0</text>
</g>
<!-- output1 -->
<g id="node5" class="node"><title>output1</title>
<polygon fill="none" stroke="black" points="36,-19.877 9,-37.877 9,-1.87702 36,-19.877"/>
</g>
<!-- output1&#45;&gt;state -->
<g id="edge2" class="edge"><title>output1&#45;&gt;state</title>
<path fill="none" stroke="black" d="M31.8937,-22.6648C47.0387,-25.9393 73.0377,-31.5607 96.1739,-36.563"/>
<polygon fill="black" stroke="black" points="95.6988,-40.0411 106.213,-38.7335 97.1782,-33.1992 95.6988,-40.0411"/>
<text text-anchor="middle" x="67" y="-35.677" font-family="Times,serif" font-size="14.00">set 1</text>
</g>
</g>
</svg>
