<?xml version="1.0" encoding="UTF-8" standalone="no"?>
<!DOCTYPE svg PUBLIC "-//W3C//DTD SVG 1.1//EN"
 "http://www.w3.org/Graphics/SVG/1.1/DTD/svg11.dtd">
<!-- Generated by graphviz version 2.26.3 (20100126.1600)
 -->
<!-- Title: _anonymous_0 Pages: 1 -->
<svg width="334pt" height="132pt"
 viewBox="0.00 0.00 334.00 132.00" xmlns="http://www.w3.org/2000/svg" xmlns:xlink="http://www.w3.org/1999/xlink">
<g id="graph1" class="graph" transform="scale(1 1) rotate(0) translate(4 128)">
<title>_anonymous_0</title>
<polygon fill="white" stroke="white" points="-4,5 -4,-128 331,-128 331,5 -4,5"/>
<!-- input0 -->
<g id="node1" class="node"><title>input0</title>
<polygon fill="none" stroke="black" points="326,-107 290,-107 290,-71 326,-71 326,-107"/>
</g>
<!-- input1 -->
<g id="node2" class="node"><title>input1</title>
<polygon fill="none" stroke="black" points="326,-53 290,-53 290,-17 326,-17 326,-53"/>
</g>
<!-- state -->
<g id="node3" class="node"><title>state</title>
<polygon fill="none" stroke="black" points="170,-124 108,-62 170,-7.10543e-15 232,-62 170,-124"/>
<text text-anchor="middle" x="170" y="-58.4" font-family="Times Roman,serif" font-size="14.00">{0, 1}</text>
</g>
<!-- state&#45;&gt;input0 -->
<g id="edge8" class="edge"><title>state&#45;&gt;input0</title>
<path fill="none" stroke="black" d="M222.172,-72.2075C241.707,-76.0296 263.158,-80.2266 279.728,-83.4686"/>
<polygon fill="black" stroke="black" points="279.358,-86.9623 289.844,-85.4477 280.702,-80.0926 279.358,-86.9623"/>
<text text-anchor="middle" x="261" y="-86.4" font-family="Times Roman,serif" font-size="14.00">if 0</text>
</g>
<!-- state&#45;&gt;input1 -->
<g id="edge10" class="edge"><title>state&#45;&gt;input1</title>
<path fill="none" stroke="black" d="M222.172,-51.7925C241.707,-47.9704 263.158,-43.7734 279.728,-40.5314"/>
<polygon fill="black" stroke="black" points="280.702,-43.9074 289.844,-38.5523 279.358,-37.0377 280.702,-43.9074"/>
<text text-anchor="middle" x="261" y="-51.4" font-family="Times Roman,serif" font-size="14.00">if 1</text>
</g>
<!-- output0 -->
<g id="node4" class="node"><title>output0</title>
<polygon fill="none" stroke="black" points="36,-89 9,-107 9,-71 36,-89"/>
</g>
<!-- output0&#45;&gt;state -->
<g id="edge4" class="edge"><title>output0&#45;&gt;state</title>
<path fill="none" stroke="black" d="M32.2998,-86.4599C49.4788,-83.4084 79.4423,-78.0859 107.041,-73.1835"/>
<polygon fill="black" stroke="black" points="107.84,-76.5965 117.074,-71.4014 106.616,-69.7044 107.84,-76.5965"/>
<text text-anchor="middle" x="72" y="-87.4" font-family="Times Roman,serif" font-size="14.00">set 0</text>
</g>
<!-- output1 -->
<g id="node5" class="node"><title>output1</title>
<polygon fill="none" stroke="black" points="36,-35 9,-53 9,-17 36,-35"/>
</g>
<!-- output1&#45;&gt;state -->
<g id="edge6" class="edge"><title>output1&#45;&gt;state</title>
<path fill="none" stroke="black" d="M32.2998,-37.5401C49.4788,-40.5916 79.4423,-45.9141 107.041,-50.8165"/>
<polygon fill="black" stroke="black" points="106.616,-54.2956 117.074,-52.5986 107.84,-47.4035 106.616,-54.2956"/>
<text text-anchor="middle" x="72" y="-52.4" font-family="Times Roman,serif" font-size="14.00">set 1</text>
</g>
</g>
</svg>
