<?xml version="1.0" encoding="UTF-8" standalone="no"?>
<!DOCTYPE svg PUBLIC "-//W3C//DTD SVG 1.1//EN"
 "http://www.w3.org/Graphics/SVG/1.1/DTD/svg11.dtd">
<!-- Generated by graphviz version 2.26.3 (20100126.1600)
 -->
<!-- Title: _anonymous_0 Pages: 1 -->
<svg width="320pt" height="132pt"
 viewBox="0.00 0.00 320.00 132.00" xmlns="http://www.w3.org/2000/svg" xmlns:xlink="http://www.w3.org/1999/xlink">
<g id="graph1" class="graph" transform="scale(1 1) rotate(0) translate(4 128)">
<title>_anonymous_0</title>
<polygon fill="white" stroke="white" points="-4,5 -4,-128 317,-128 317,5 -4,5"/>
<!-- input0 -->
<g id="node1" class="node"><title>input0</title>
<polygon fill="none" stroke="black" points="312,-107 276,-107 276,-71 312,-71 312,-107"/>
</g>
<!-- input1 -->
<g id="node2" class="node"><title>input1</title>
<polygon fill="none" stroke="black" points="312,-53 276,-53 276,-17 312,-17 312,-53"/>
</g>
<!-- state -->
<g id="node3" class="node"><title>state</title>
<polygon fill="none" stroke="black" points="156,-124 94,-62 156,-7.10543e-15 218,-62 156,-124"/>
<text text-anchor="middle" x="156" y="-58.4" font-family="Times Roman,serif" font-size="14.00">{0, 1}</text>
</g>
<!-- state&#45;&gt;input0 -->
<g id="edge5" class="edge"><title>state&#45;&gt;input0</title>
<path fill="none" stroke="black" d="M208.172,-72.2075C227.707,-76.0296 249.158,-80.2266 265.728,-83.4686"/>
<polygon fill="black" stroke="black" points="265.358,-86.9623 275.844,-85.4477 266.702,-80.0926 265.358,-86.9623"/>
<text text-anchor="middle" x="247" y="-86.4" font-family="Times Roman,serif" font-size="14.00">if 0</text>
</g>
<!-- state&#45;&gt;input1 -->
<g id="edge7" class="edge"><title>state&#45;&gt;input1</title>
<path fill="none" stroke="black" d="M208.172,-51.7925C227.707,-47.9704 249.158,-43.7734 265.728,-40.5314"/>
<polygon fill="black" stroke="black" points="266.702,-43.9074 275.844,-38.5523 265.358,-37.0377 266.702,-43.9074"/>
<text text-anchor="middle" x="247" y="-52.4" font-family="Times Roman,serif" font-size="14.00">if 1</text>
</g>
<!-- output -->
<g id="node4" class="node"><title>output</title>
<polygon fill="none" stroke="black" points="36,-62 9,-80 9,-44 36,-62"/>
</g>
<!-- output&#45;&gt;state -->
<g id="edge3" class="edge"><title>output&#45;&gt;state</title>
<path fill="none" stroke="black" d="M36.0411,-62C48.439,-62 65.7961,-62 83.4633,-62"/>
<polygon fill="black" stroke="black" points="83.8661,-65.5001 93.8661,-62 83.8661,-58.5001 83.8661,-65.5001"/>
<text text-anchor="middle" x="65" y="-67.4" font-family="Times Roman,serif" font-size="14.00">+1</text>
</g>
</g>
</svg>
