<?xml version="1.0" encoding="UTF-8" standalone="no"?>
<!DOCTYPE svg PUBLIC "-//W3C//DTD SVG 1.1//EN"
 "http://www.w3.org/Graphics/SVG/1.1/DTD/svg11.dtd">
<!-- Generated by graphviz version 2.38.0 (20140413.2041)
 -->
<!-- Title: %3 Pages: 1 -->
<svg width="281pt" height="102pt"
 viewBox="0.00 0.00 280.75 101.75" xmlns="http://www.w3.org/2000/svg" xmlns:xlink="http://www.w3.org/1999/xlink">
<g id="graph0" class="graph" transform="scale(1 1) rotate(0) translate(4 97.754)">
<title>%3</title>
<polygon fill="white" stroke="none" points="-4,4 -4,-97.754 276.754,-97.754 276.754,4 -4,4"/>
<!-- input0 -->
<g id="node1" class="node"><title>input0</title>
<polygon fill="none" stroke="black" points="272.754,-91.877 236.754,-91.877 236.754,-55.877 272.754,-55.877 272.754,-91.877"/>
</g>
<!-- input1 -->
<g id="node2" class="node"><title>input1</title>
<polygon fill="none" stroke="black" points="272.754,-37.877 236.754,-37.877 236.754,-1.87702 272.754,-1.87702 272.754,-37.877"/>
</g>
<!-- state -->
<g id="node3" class="node"><title>state</title>
<polygon fill="none" stroke="black" points="134.877,-93.6314 88.1227,-46.877 134.877,-0.122658 181.631,-46.877 134.877,-93.6314"/>
<text text-anchor="middle" x="134.877" y="-43.177" font-family="Times,serif" font-size="14.00">{0, 1}</text>
</g>
<!-- state&#45;&gt;input0 -->
<g id="edge2" class="edge"><title>state&#45;&gt;input0</title>
<path fill="none" stroke="black" d="M173.174,-55.42C190.492,-59.3867 210.704,-64.0164 226.553,-67.6467"/>
<polygon fill="black" stroke="black" points="226.211,-71.1587 236.74,-69.9798 227.774,-64.3354 226.211,-71.1587"/>
<text text-anchor="middle" x="209.254" y="-68.677" font-family="Times,serif" font-size="14.00">if 0</text>
</g>
<!-- state&#45;&gt;input1 -->
<g id="edge3" class="edge"><title>state&#45;&gt;input1</title>
<path fill="none" stroke="black" d="M173.174,-38.3341C190.492,-34.3674 210.704,-29.7377 226.553,-26.1074"/>
<polygon fill="black" stroke="black" points="227.774,-29.4186 236.74,-23.7742 226.211,-22.5953 227.774,-29.4186"/>
<text text-anchor="middle" x="209.254" y="-35.677" font-family="Times,serif" font-size="14.00">if 1</text>
</g>
<!-- output -->
<g id="node4" class="node"><title>output</title>
<polygon fill="none" stroke="black" points="36,-46.877 9,-64.877 9,-28.877 36,-46.877"/>
</g>
<!-- output&#45;&gt;state -->
<g id="edge1" class="edge"><title>output&#45;&gt;state</title>
<path fill="none" stroke="black" d="M36.4473,-46.877C47.5649,-46.877 62.6506,-46.877 77.6284,-46.877"/>
<polygon fill="black" stroke="black" points="77.9303,-50.3771 87.9303,-46.877 77.9302,-43.3771 77.9303,-50.3771"/>
<text text-anchor="middle" x="62" y="-50.677" font-family="Times,serif" font-size="14.00">+1</text>
</g>
</g>
</svg>
