<?xml version="1.0" encoding="UTF-8" standalone="no"?>
<!DOCTYPE svg PUBLIC "-//W3C//DTD SVG 1.1//EN"
 "http://www.w3.org/Graphics/SVG/1.1/DTD/svg11.dtd">
<!-- Generated by graphviz version 2.38.0 (20140413.2041)
 -->
<!-- Title: %3 Pages: 1 -->
<svg width="462pt" height="202pt"
 viewBox="0.00 0.00 462.25 202.00" xmlns="http://www.w3.org/2000/svg" xmlns:xlink="http://www.w3.org/1999/xlink">
<g id="graph0" class="graph" transform="scale(1 1) rotate(0) translate(4 198)">
<title>%3</title>
<polygon fill="white" stroke="none" points="-4,4 -4,-198 458.25,-198 458.25,4 -4,4"/>
<!-- input -->
<g id="node1" class="node"><title>input</title>
<polygon fill="none" stroke="black" points="454.25,-119 410.25,-119 410.25,-75 454.25,-75 454.25,-119"/>
<text text-anchor="middle" x="432.25" y="-100.8" font-family="Times,serif" font-size="14.00">input</text>
<text text-anchor="middle" x="432.25" y="-85.8" font-family="Times,serif" font-size="14.00">node</text>
</g>
<!-- state -->
<g id="node2" class="node"><title>state</title>
<polygon fill="none" stroke="black" points="277.25,-194 180.25,-97 277.25,-2.84217e-14 374.25,-97 277.25,-194"/>
<text text-anchor="middle" x="277.25" y="-100.8" font-family="Times,serif" font-size="14.00">module with</text>
<text text-anchor="middle" x="277.25" y="-85.8" font-family="Times,serif" font-size="14.00">empty state {}</text>
</g>
<!-- state&#45;&gt;input -->
<g id="edge2" class="edge"><title>state&#45;&gt;input</title>
<path fill="none" stroke="black" d="M374.278,-97C383.524,-97 392.362,-97 400.202,-97"/>
<polygon fill="black" stroke="black" points="400.217,-100.5 410.217,-97 400.217,-93.5001 400.217,-100.5"/>
</g>
<!-- output -->
<g id="node3" class="node"><title>output</title>
<polygon fill="none" stroke="black" points="144.375,-97 35.9999,-169.25 35.9999,-24.75 144.375,-97"/>
<text text-anchor="middle" x="72.1249" y="-100.8" font-family="Times,serif" font-size="14.00">output</text>
<text text-anchor="middle" x="72.1249" y="-85.8" font-family="Times,serif" font-size="14.00">node</text>
</g>
<!-- output&#45;&gt;state -->
<g id="edge1" class="edge"><title>output&#45;&gt;state</title>
<path fill="none" stroke="black" d="M144.454,-97C152.752,-97 161.347,-97 169.987,-97"/>
<polygon fill="black" stroke="black" points="170.136,-100.5 180.136,-97 170.136,-93.5001 170.136,-100.5"/>
</g>
</g>
</svg>
