<?xml version="1.0" encoding="UTF-8" standalone="no"?>
<!DOCTYPE svg PUBLIC "-//W3C//DTD SVG 1.1//EN"
 "http://www.w3.org/Graphics/SVG/1.1/DTD/svg11.dtd">
<!-- Generated by graphviz version 2.26.3 (20100126.1600)
 -->
<!-- Title: _anonymous_0 Pages: 1 -->
<svg width="556pt" height="252pt"
 viewBox="0.00 0.00 556.00 252.00" xmlns="http://www.w3.org/2000/svg" xmlns:xlink="http://www.w3.org/1999/xlink">
<g id="graph1" class="graph" transform="scale(1 1) rotate(0) translate(4 248)">
<title>_anonymous_0</title>
<polygon fill="white" stroke="white" points="-4,5 -4,-248 553,-248 553,5 -4,5"/>
<!-- input -->
<g id="node1" class="node"><title>input</title>
<polygon fill="none" stroke="black" points="547,-148.5 495,-148.5 495,-95.5 547,-95.5 547,-148.5"/>
<text text-anchor="middle" x="521" y="-127.4" font-family="Times Roman,serif" font-size="14.00">input</text>
<text text-anchor="middle" x="521" y="-109.4" font-family="Times Roman,serif" font-size="14.00">node</text>
</g>
<!-- state -->
<g id="node2" class="node"><title>state</title>
<polygon fill="none" stroke="black" points="336,-244 214,-122 336,-4.26326e-14 458,-122 336,-244"/>
<text text-anchor="middle" x="336" y="-127.4" font-family="Times Roman,serif" font-size="14.00">module with</text>
<text text-anchor="middle" x="336" y="-109.4" font-family="Times Roman,serif" font-size="14.00">empty state {}</text>
</g>
<!-- state&#45;&gt;input -->
<g id="edge3" class="edge"><title>state&#45;&gt;input</title>
<path fill="none" stroke="black" d="M458.109,-122C467.38,-122 476.207,-122 484.16,-122"/>
<polygon fill="black" stroke="black" points="484.423,-125.5 494.423,-122 484.423,-118.5 484.423,-125.5"/>
</g>
<!-- output -->
<g id="node3" class="node"><title>output</title>
<polygon fill="none" stroke="black" points="178.095,-122 44.4523,-211.095 44.4523,-32.9045 178.095,-122"/>
<text text-anchor="middle" x="89" y="-127.4" font-family="Times Roman,serif" font-size="14.00">output</text>
<text text-anchor="middle" x="89" y="-109.4" font-family="Times Roman,serif" font-size="14.00">node</text>
</g>
<!-- output&#45;&gt;state -->
<g id="edge2" class="edge"><title>output&#45;&gt;state</title>
<path fill="none" stroke="black" d="M178.173,-122C186.516,-122 195.085,-122 203.713,-122"/>
<polygon fill="black" stroke="black" points="203.857,-125.5 213.857,-122 203.857,-118.5 203.857,-125.5"/>
</g>
</g>
</svg>
